<svg id="OBJECTS" xmlns="http://www.w3.org/2000/svg" viewBox="0 0 500 500"><defs><style>.cls-1{fill:#e5d4b3;}.cls-2{fill:#79ad6c;}.cls-3{fill:#ff7145;}.cls-4{fill:#835233;}.cls-5{fill:#e8c52e;}.cls-24,.cls-6{opacity:0.3;}.cls-12,.cls-24,.cls-7{fill:#fff;}.cls-8{fill:#a26b23;}.cls-9{fill:#98a09b;}.cls-10,.cls-15{opacity:0.2;}.cls-11{fill:#6d5321;}.cls-12,.cls-23{opacity:0.4;}.cls-13{opacity:0.1;}.cls-14{fill:#ff9e4e;}.cls-16{fill:#b98647;}.cls-17{fill:#96d3a5;}.cls-18{fill:#a5a5a5;}.cls-19{fill:#ff9879;}.cls-20{fill:#ffbc94;}.cls-21{fill:#ada18c;}.cls-22{fill:#e6dece;}.cls-25{fill:#262626;}.cls-26{fill:#876729;}</style></defs><path class="cls-1" d="M50.58,377a9.62,9.62,0,0,0,9.47,9.77H169.34a9.62,9.62,0,0,0,9.48-9.77V196.54a9.62,9.62,0,0,0-9.48-9.76H60.05a9.62,9.62,0,0,0-9.47,9.76Z"/><path class="cls-2" d="M116.56,354.7s-11.81,9.14-22.45,2.89c-10.15-5.95-6.88-19.15-6.88-19.15s-10-.56-12.33-10.5,6.81-14.44,6.81-14.44-11-3.54-10.09-13.84S78,289.52,78,289.52,68,286.46,67.14,278.1a15.7,15.7,0,0,1,5.26-13.2s-9.83-7.08-7.33-16.73,10.3-9.34,10.3-9.34-4.06-10.14,4.37-15.29,11.86,0,11.86,0-.32-17.54,11.23-19.47,15.29,11.75,15.29,11.75,5.46-10.26,18.3-2.57c7,4.18,7,16.25,7,16.25s6.69-2.7,11.21,5.33-2.8,19.12-2.8,19.12a21.35,21.35,0,0,1,12.64,17.23c1.71,13.19-5.78,20.2-5.78,20.2a15.44,15.44,0,0,1,4.21,13.91c-1.56,8.85-7.8,11.27-7.8,11.27s5.46,12.55,2.81,18.66S145,342,145,342s2.42,9.88-4.69,14.16C126.4,364.51,116.56,354.7,116.56,354.7Z"/><path class="cls-3" d="M96.5,328.17a6,6,0,1,0-6,6.16A6.06,6.06,0,0,0,96.5,328.17Z"/><path class="cls-4" d="M146.48,282.53c-2.15,1.71.71,7.34.81,12.71A6.68,6.68,0,0,1,142.8,302v0c-2-7.5-4.49-10.86-6.39-10-2.39,1,2.7,25.28,1.68,31.71-.83,5.2-8.29,11.52-11.1,13.72-1-10.1-2.1-20.44-3.18-30h0c9.73-4.24,6.93-21.78,5.6-22s-1.84.52-2.25,4.74c-.31,3.21-3.18,6-4.52,7.13-.65-5.5-1.27-10.53-1.83-14.82v0s12.48-15.2,14.73-24a30.38,30.38,0,0,0,.75-4.9c2.11-3.68,8.61-15.3,6.8-16.27s-5.51,5.38-6.91,7.87c-.56-6-2.07-11-3.71-10.29-2.86,1.15,0,12.64-1.88,21.06s-11.42,14.95-11.42,14.95h0c-.21-1.24-.38-2.15-.52-2.68-1.92-7.54-3.08-11.11,1.93-17.07s2.69-22.23,0-23-4.24,4.34-3.47,12.68-7.69,10.32-7.69,10.32c-5.78-4.76-1.54-13.5-5.39-15.08s-4.24,3.57-4.62,12.25,8.47,10.38,12.32,21.49c.66,1.93.87,6.72.75,13.31-3.25-1.84-10.71-6.65-15.25-14.32-5.92-10-2.86-21.89-5-22.85-1.21-.54-3.27,4.49-3.78,10.72-7.76-3.93-8.47-14.44-9.6-12.62-6.22,10,4.62,16.6,9.67,19a20.51,20.51,0,0,0,2.59,8.18c4.65,7.74,16.52,16.55,21.12,19.78-.14,3.13-.32,6.5-.53,10-5-3.52-16.42-11.15-17.53-9.18s12.1,14.39,16.89,18.73c-.63,8.77-1.4,18.11-2.2,27.13-4.85-2.18-8.4-7.26-11-12.56,2.46-2.7,6.73-7.9,5.17-9.84s-5.31,2.25-7.42,4.85c-2.53-6.15-4-11.39-5-11.14-2.37.58-3,8.62,1.47,20.26,3.42,8.82,12.08,14.36,16.08,16.54-2.07,22.4-4.09,41-4.09,41H130.6c0-7.47-1-21.07-2.37-36.49,16.41-15.45,17.91-28.74,16.18-40.42,1.62-1.76,6.09-7,7.17-12.22C152.91,291.24,148.62,280.81,146.48,282.53Z"/><path class="cls-5" d="M87,272.29a4.92,4.92,0,1,0-4.91,5.07A5,5,0,0,0,87,272.29Z"/><path class="cls-5" d="M133.51,223a4.92,4.92,0,1,0-4.92,5.06A5,5,0,0,0,133.51,223Z"/><ellipse class="cls-3" cx="91.88" cy="223.42" rx="7.99" ry="8.24"/><ellipse class="cls-3" cx="140.27" cy="272.29" rx="5.97" ry="6.15"/><path class="cls-3" d="M90.34,300.65a6.61,6.61,0,1,0-6.6,6.82A6.7,6.7,0,0,0,90.34,300.65Z"/><path class="cls-5" d="M152,328.17a4.92,4.92,0,1,0-4.91,5.07A5,5,0,0,0,152,328.17Z"/><path class="cls-1" d="M225.3,72.21v80.18a9.62,9.62,0,0,1-9.47,9.77H59.65a9.63,9.63,0,0,1-9.48-9.77V72.21a9.63,9.63,0,0,1,9.48-9.77H215.83A9.62,9.62,0,0,1,225.3,72.21Z"/><g class="cls-6"><path class="cls-7" d="M225.3,94.07v58.32a9.62,9.62,0,0,1-9.47,9.77H59.65a9.63,9.63,0,0,1-9.48-9.77V103.17c4.33-4.09,9.22-7.53,13.64-6.83s34.67,17.56,39,20.76c3.72,3.19,53.91,17.24,63.5,9.57a272,272,0,0,0,26.31-24.26c9-9.25,15.49-16.29,28.49-10.86A27,27,0,0,1,225.3,94.07Z"/></g><path class="cls-8" d="M225.3,145.77v6.62a9.62,9.62,0,0,1-9.47,9.77H59.65a9.63,9.63,0,0,1-9.48-9.77v-6.62Z"/><rect class="cls-9" x="140.91" y="93.2" width="7.29" height="13.01"/><path class="cls-3" d="M150.5,110.8v27.75H74.76a31.5,31.5,0,0,1-3.49-7.42C69,124.56,67,113.69,69.78,98.78,72.91,82.29,84.58,80,84.58,80h25.24c17.33,0,16.88,19.88,16.88,19.88C142.23,102.17,150.5,104.93,150.5,110.8Z"/><path class="cls-10" d="M150.5,131.13v7.42H74.76a31.5,31.5,0,0,1-3.49-7.42Z"/><path class="cls-11" d="M74.81,99.79c0-11.4,8.84-14,10.4-14.52h24.61c3.39,0,6,1,7.84,2.92,4,4.15,3.92,11.49,3.92,11.57l-.07,4.64H79.22S74.81,105,74.81,99.79Z"/><rect class="cls-3" x="97.69" y="85.27" width="5.53" height="19.13"/><ellipse class="cls-11" cx="89.95" cy="132.95" rx="16.13" ry="16.63"/><path class="cls-7" d="M95.94,133a6,6,0,1,0-6,6.18A6.09,6.09,0,0,0,95.94,133Z"/><ellipse class="cls-11" cx="138.96" cy="137.68" rx="11.55" ry="11.91"/><path class="cls-7" d="M142.24,137.68a3.29,3.29,0,1,0-3.28,3.38A3.34,3.34,0,0,0,142.24,137.68Z"/><rect class="cls-11" x="143.5" y="87.42" width="4.69" height="5.78"/><path class="cls-12" d="M150.5,111.11h-5.95s-3.92,0-3.92,4.59,3.92,4.65,3.92,4.65h5.95Z"/><path class="cls-11" d="M109.77,125a1,1,0,0,1-1-1v-7.74a6.13,6.13,0,0,1,5.35-6.41h21.5a1,1,0,0,1,0,1.95H114.33a4.19,4.19,0,0,0-3.62,4.46v7.74A1,1,0,0,1,109.77,125Z"/><path class="cls-11" d="M133.23,117.29h-16.3a1,1,0,0,1,0-2h16.3a1,1,0,0,1,0,2Z"/><path class="cls-11" d="M129.47,122.88H116.93a1,1,0,0,1,0-2h12.54a1,1,0,0,1,0,2Z"/><path class="cls-7" d="M147.71,84.74c2.31,2.67,4.7-1.88,4.7-1.88S155,87.5,159,85.57s3.2-4.38,3.2-4.38,3.73,4.49,8.65,2.42A6.45,6.45,0,0,0,175.15,77s4.69,2.71,7.9,0a8.16,8.16,0,0,0,2.88-6.46s6.94-2.15,6.94-8.09H145s-.48,9.08,6,8.2c0,0-2.21,4.33,1.42,6.35C152.41,77,142.48,78.68,147.71,84.74Z"/><path class="cls-2" d="M63.3,154s-10.51-10.29-6-12.9,6,8.52,6,8.52.31-9.06,4.32-7.63S63.3,154,63.3,154Z"/><path class="cls-2" d="M111.21,157.17s-7.53-7.37-4.32-9.24,4.32,6.11,4.32,6.11.22-6.5,3.1-5.47S111.21,157.17,111.21,157.17Z"/><path class="cls-2" d="M160.9,148.08s-7.53-7.38-4.32-9.25,4.32,6.11,4.32,6.11.22-6.5,3.1-5.47S160.9,148.08,160.9,148.08Z"/><path class="cls-1" d="M286.34,71.72A9.62,9.62,0,0,1,295.81,62H440.7a9.62,9.62,0,0,1,9.47,9.77V176.23A9.63,9.63,0,0,1,440.7,186H295.81a9.63,9.63,0,0,1-9.47-9.77Z"/><path class="cls-3" d="M339.67,104.12c-10,8.54-8.67,21.07,4.3,30.83s27.94,7.64,32.67-2.35c3.58-7.57.85-14.3-4.51-19.48-5-4.8-12.17-8.27-18.67-9.85C347.52,101.84,342.18,102,339.67,104.12Z"/><path class="cls-2" d="M347.09,113.42c3.3-1.84,10.24-1.55,10.24-1.55l-.74,9.86,8.09-4.47a48.25,48.25,0,0,1,5.2,9.75,19.37,19.37,0,0,0,2.25-13.89c-5-4.8-12.17-8.27-18.67-9.85A10.86,10.86,0,0,0,347.09,113.42Z"/><path class="cls-2" d="M389.32,145.57a22.61,22.61,0,0,0,.25,2.67c1.84,11.8,13.51,16.43,30.08,9.4,28.13-11.94,22.74-56.38,22.74-56.38C427.5,135.28,388.91,131.82,389.32,145.57Z"/><path class="cls-13" d="M389.32,145.57a22.61,22.61,0,0,0,.25,2.67c50.46-2.24,52.82-47,52.82-47C427.5,135.28,388.91,131.82,389.32,145.57Z"/><path class="cls-2" d="M369.35,162.2h0c.52-.25,38.79-19.5,28.44-57.68-5.7-21-30.45-26.25-31.22-26.41h0s12.37,13.65,3.85,31.05S357,138.75,369.35,162.2Z"/><path class="cls-13" d="M369.35,162.2h0c.2-.37,6.74-12.35,15.87-40.36S367.3,78.5,366.58,78.1h0s12.37,13.65,3.85,31.05S357,138.75,369.35,162.2Z"/><path class="cls-14" d="M361.41,151a17.5,17.5,0,0,0,1.53,4,19.54,19.54,0,0,0,4.65,5.85l0,0c.48.42,1,.82,1.46,1.19a26.49,26.49,0,0,0,8.71,4.56,22.76,22.76,0,0,0,5.22.94c8.58.53,16.76-3.78,22.07-10.91,8.52-11.42,2.15-26.92,9-30.23,7.44-3.6,18.37-11.82,13.66-22.5a15.94,15.94,0,0,0-1.44-2.62,28.2,28.2,0,0,0-5.08-5.6c-.26-.24-.53-.46-.81-.7s-.45-.36-.67-.52a20.08,20.08,0,0,0-9.27-4.25,14.49,14.49,0,0,0-3.34-.15c-7.35.46-13.25,6.28-15,13.7-2.73,11.6-12.1,9.31-20.78,18.09C364.88,128.37,358.69,140.49,361.41,151Z"/><g class="cls-15"><path d="M377.79,166.56a22.76,22.76,0,0,0,5.22.94c22.41-5.85,24.39-25.62,25.42-35.79.12-1.27.23-2.36.37-3.25,1.28-8.6,2.2-9.23,10.23-12.33,5.41-2.09,7.73-8,8.71-12.27a15.94,15.94,0,0,0-1.44-2.62c-.58,3.66-2.41,10.92-7.94,13.05-8.57,3.32-10.05,4.53-11.44,13.87-.14.94-.25,2.05-.38,3.34C405.5,141.86,403.42,162.63,377.79,166.56Z"/></g><g class="cls-15"><path d="M361.41,151a17.5,17.5,0,0,0,1.53,4c1.06-17.69,10.08-29.66,24.58-32.3,10-1.82,11.19-7,13.15-15.61.36-1.57.73-3.19,1.18-5,1.88-7.29,6-10.52,8.62-11.88a14.49,14.49,0,0,0-3.34-.15c-2.64,2-5.57,5.55-7.1,11.54-.47,1.8-.86,3.5-1.2,5-2,8.6-2.87,12.54-11.65,14.14C372.84,123.32,363.54,134.42,361.41,151Z"/></g><g class="cls-15"><path d="M367.59,160.78l0,0c.48.42,1,.82,1.46,1.19,5.56-5.85,22.15-23.5,28.57-32.67s19.28-27.55,23.57-33.69c-.26-.24-.53-.46-.81-.7s-.45-.36-.67-.52l-23.62,33.77C389.71,137.32,373,155.12,367.59,160.78Z"/></g><path class="cls-11" d="M416.93,98.29c1.5,1.45,16.17-5.78,10.57-11.72S414.53,96,416.93,98.29Z"/><path class="cls-3" d="M391.63,161.74c1,13.34,11.69,19.46,26.9,14.16s22.16-19.14,17-28.89c-3.93-7.38-10.83-8.95-18-7.43-6.66,1.42-13.56,5.49-18.56,10C394.34,153.81,391.37,158.39,391.63,161.74Z"/><path class="cls-2" d="M403.28,160.85c.44-3.83,4.67-9.52,4.67-9.52l7.38,6.31,1.13-9.4a45.47,45.47,0,0,1,10.72,1.24,18.56,18.56,0,0,0-9.71-9.9c-6.66,1.42-13.56,5.49-18.56,10A10.87,10.87,0,0,0,403.28,160.85Z"/><path class="cls-2" d="M372.89,173.45c-1.14,5.19-11.23,5.49-15.56.19s-3-11.46,1.15-12.69,1.52,4.72,5.8,6.21S374,168.34,372.89,173.45Z"/><path class="cls-2" d="M350.54,147.3c2.52-3.47-4.41-5.48-3-11.64s-2-8.9-5.2-8.64-6.21,5.32-2.73,13.41S348.14,150.6,350.54,147.3Z"/><path class="cls-2" d="M321.78,102.19c.69,4.21,1.54,7.64,1.77,8.54a1,1,0,0,0,.92.72.91.91,0,0,0,.23,0,1,1,0,0,0,.68-1.19c-1.06-4.13-2.8-12.75-2.7-19.18,1,.1,2,.14,2.94.14A31.35,31.35,0,0,0,349.45,80a1,1,0,0,0,.17-.86.93.93,0,0,0-.57-.66c-8.45-3.4-18.69-.73-25.09,3.43-2,1.31-2.89,4.34-3.11,8v0a.71.71,0,0,0,0,.14c-.06,1-.06,2.08,0,3.15a24.55,24.55,0,0,0-18-6.53S302.47,97.36,321.78,102.19Z"/><path class="cls-1" d="M446.92,241.41a15.62,15.62,0,0,0-15.38-15.85H308.11a15.61,15.61,0,0,0-15.37,15.85V352a15.62,15.62,0,0,0,15.37,15.86H431.54A15.63,15.63,0,0,0,446.92,352Z"/><ellipse class="cls-5" cx="341.27" cy="250.67" rx="8.96" ry="9.24"/><path class="cls-11" d="M341.64,248.49s-.89-4.49,1.88-6.76,7.15-4.21,4.09-7.07S338.16,242.93,341.64,248.49Z"/><path class="cls-3" d="M407.84,242.07a8.88,8.88,0,0,0-11.63,5.21,9.33,9.33,0,0,0,5.05,12,8.88,8.88,0,0,0,11.63-5.21A9.35,9.35,0,0,0,407.84,242.07Z"/><path class="cls-11" d="M402.72,249.51s-4.38-.8-5.41-4.28-1.18-8.41-4.88-6.52S396.43,250.81,402.72,249.51Z"/><path class="cls-3" d="M379.26,359.62a9.25,9.25,0,0,0-6.69-11.1,9,9,0,0,0-10.77,6.9,9.27,9.27,0,0,0,6.7,11.11A9,9,0,0,0,379.26,359.62Z"/><path class="cls-11" d="M371.38,355.49s.12-4.59,3.32-6.14,7.89-2.43,5.53-5.93S369.21,349.26,371.38,355.49Z"/><ellipse class="cls-3" cx="310.63" cy="293.7" rx="8.96" ry="9.24"/><path class="cls-11" d="M311.82,291.85s.91-4.49,4.32-5.43,8.18-.95,6.47-4.82S310.76,285.32,311.82,291.85Z"/><ellipse class="cls-3" cx="329.22" cy="340.64" rx="8.96" ry="9.24"/><path class="cls-11" d="M327.51,339.31s-4.29-1.22-5-4.79-.41-8.48-4.27-7S321.12,340,327.51,339.31Z"/><path class="cls-5" d="M419.72,349.53a9.44,9.44,0,0,0-1.5-13,8.77,8.77,0,0,0-12.58,1.54,9.43,9.43,0,0,0,1.49,13A8.78,8.78,0,0,0,419.72,349.53Z"/><path class="cls-11" d="M414.28,342.34s2-4.1,5.53-4.11,8.14,1.25,7.45-3S414.88,335.75,414.28,342.34Z"/><path class="cls-5" d="M424.25,301.36a8.77,8.77,0,0,0,12.56-1.72,9.44,9.44,0,0,0-1.67-13,8.78,8.78,0,0,0-12.56,1.72A9.43,9.43,0,0,0,424.25,301.36Z"/><path class="cls-11" d="M431.14,295.66s4,2,4.06,5.64-1.09,8.41,3,7.64S437.54,296.18,431.14,295.66Z"/><path class="cls-3" d="M349.24,284.7a8.84,8.84,0,0,0-12.06,4.06,9.39,9.39,0,0,0,3.93,12.43,8.85,8.85,0,0,0,12.06-4.06A9.39,9.39,0,0,0,349.24,284.7Z"/><path class="cls-11" d="M343.46,291.61s-4.29-1.22-5-4.79-.41-8.48-4.26-7S337.08,292.29,343.46,291.61Z"/><ellipse class="cls-3" cx="395.56" cy="291.49" rx="8.96" ry="9.24"/><path class="cls-11" d="M396.82,289.69s1.09-4.45,4.54-5.24,8.21-.59,6.65-4.54S396,283.12,396.82,289.69Z"/><ellipse class="cls-5" cx="359.97" cy="288.1" rx="10.57" ry="10.9"/><ellipse class="cls-5" cx="384.1" cy="291.49" rx="9.19" ry="9.48"/><ellipse class="cls-3" cx="370.54" cy="289.69" rx="9.19" ry="9.48"/><path class="cls-16" d="M394.1,295.8h-3.79V284.89c0-11.85-9.35-21.5-20.84-21.5a20.39,20.39,0,0,0-14.74,6.3,21.69,21.69,0,0,0-6.11,15.2V295.8h-3.79V284.89a25.62,25.62,0,0,1,7.22-18,24.09,24.09,0,0,1,17.42-7.44c13.58,0,24.63,11.39,24.63,25.4Z"/><path class="cls-8" d="M407.59,300.26a4.39,4.39,0,0,0-4.32-4.46h-67.6a4.4,4.4,0,0,0-4.33,4.46h0a4.4,4.4,0,0,0,4.33,4.46h67.6a4.39,4.39,0,0,0,4.32-4.46Z"/><path class="cls-16" d="M402.17,304.71c-1.29,6.51-5.44,32.28-15.91,32.28H352.65c-4.76,0-8.23-5.36-10.71-11.8-.25-.65-.49-1.3-.71-2-.5-1.46-1-3-1.39-4.43-.18-.66-.35-1.31-.52-2-.4-1.59-.76-3.14-1.09-4.59-.14-.67-.28-1.32-.4-1.95-.49-2.36-.85-4.34-1.09-5.59Z"/><path class="cls-8" d="M376.35,310.3H362.57v-6.56a1,1,0,1,0-1.9,0v6.56h-8.79v-6.56a.95.95,0,1,0-1.89,0v6.56H337.83c.12.63.26,1.28.4,1.95H350v4.59H339.32c.17.65.34,1.3.52,2H350v4.43h-8.76c.22.66.46,1.31.71,2H350v4a.95.95,0,1,0,1.89,0v-4h8.79v4a1,1,0,1,0,1.9,0v-4h4.17a1,1,0,0,0,0-2h-4.17V318.8h9.5a1,1,0,0,0,0-2h-9.5v-4.59h13.78a1,1,0,0,0,0-1.95Zm-15.68,12.93h-8.79V318.8h8.79Zm0-6.39h-8.79v-4.59h8.79Z"/><path class="cls-17" d="M371,369.63a64.23,64.23,0,0,1-5.92,23c-2.79,6.52-7.84,13.52-10.28,20.36-9.5-4.21-23.44-4.81-38.22-4.84-10.83,0-53.65-.51-93.88-1A83.71,83.71,0,0,1,217.89,388a95.84,95.84,0,0,1-.91-15.48c.05-1.58.09-3.42.2-5.3.44-7.37,2.07-15.23,11.08-10.12,9.3,5.53,13.53,12.22,16.64,22.69-.57-4.66-5.36-31.12-.29-32.87,3.95-1.45,11,11.93,12.69,14.84,3.39,5.52,4.8,9.59,6.49,16,1.41-4.36,2-9.6,3.1-14.25.57-2.91,3.39-16,7.05-16.58,7.34-.87,9,30,9.88,34.61,2-4.94,5.35-28.21,11-29.66,7.34-1.75,8.75,25.59,9.59,30.25a199.58,199.58,0,0,1,5.36-22.4c3.67-13.09,7.62-26.76,14.67-38.39,2-3.2,6.77-11.35,11.28-8.44,2.82,1.75,2.54,8.14,2.54,11,0,9.89-1.7,20.36-3.11,30a84.15,84.15,0,0,1-4.23,18.62c-1.41,4.07-4.51,9.6-4.51,14,3.39-4.36,12.69-31.71,18.9-30,8.46,2.33-.57,28.8.84,34,4.52-7.27,7.34-16,12.41-22.69,1.69-2.61,7.9-10.47,11.28-8.72C372.09,360.32,371,367.3,371,369.63Z"/><path class="cls-17" d="M217.89,388c-.89,3.2-1.82,6.08-2.32,8.08-.69,2.11-1.37,7.86-2.81,10.9-36.16-.44-55.69,12.72-66.85,6.48-5.72-3.2-10.69-.06-17.49,1.23-5.31-4.94-16.22-15.93-20.87-21.52-2.26-2.62-8.74-10.76-7.62-14.84,2.54-9.59,19.18,10.18,21.72,13.38-4.51-6.69-8.18-16.28-5.92-24.43,3.1-11.63,15.23,8.44,17.77,12.8-3.39-9-7.34-17.16-8.75-26.76-.84-4.94-1.41-20.94,6.77-20.94,5.64,0,12.69,16.58,15.23,21.52,4.23,7.86,7.9,16,11.56,24.14-.56-4.94-1.12-20.94,7.9-18.9,6.77,1.74,10.44,16.29,13.54,21.23.28-4.36,1.69-18,8.46-15.71,5.64,2,6.2,13.67,8.46,18.33.56-8.12,11.78-23.18,20.51-15.77l.08.06C221.8,371.18,220,380.5,217.89,388Z"/><path class="cls-16" d="M152.06,408.7c-19.89,2.6-40.16,5.74-58,15.19-4.66,2.48-9.64,6.19-10,11.6-.52,8.36,9.63,12.37,17.65,13.69a962,962,0,0,0,238.9,9.21c7.69-.66,17.93-4.74,16.27-12.51-1.32-6.16-10.22-10.9-7.11-16.33,3.62-6.34,61.63,6,41.72-17.07-8.13-9.42-21.9-10.73-33.89-12.24-37.22-4.69-87.25-2.72-124.46.1Q192.52,403.42,152.06,408.7Z"/><path class="cls-4" d="M205.16,410.14s-32.32-1.34-34.1,10,44.63,14.23,43.68,20.5c-.45,2.94-9.45,3.1-8.81,9.13s37.56,9.06,38.45,1.81-6.13-8.17-2.61-12.24,56,8.29,57.16-10.74S244.5,410.81,205.16,410.14Z"/><path class="cls-4" d="M146.58,413.85c0,7.55,17.2,4.95,17.21,1S146.6,406.29,146.58,413.85Z"/><path class="cls-4" d="M168.85,441.33a4.31,4.31,0,1,0-4.32,4.43A4.38,4.38,0,0,0,168.85,441.33Z"/><path class="cls-4" d="M309.3,445.57c.44,3.19,18.28,10.43,20.32,1.19s-5.65-10.59-10.15-4.94C319.47,441.82,308.21,437.83,309.3,445.57Z"/><path class="cls-4" d="M307,411.6a4,4,0,1,0-4,4.12A4.06,4.06,0,0,0,307,411.6Z"/><path class="cls-18" d="M338.21,185.75c24.54,0,26.18-1.31,30.5-5.77,17.27-17.81-5.84-80.13-9.4-78.82s3.18,42.1,4.33,51.94,2.67,16.52-3.95,16.52-7.49-4.83-7.49-7.87c0-5.52-3.69-58.17-6.49-58.17-6.36,0-1,48.2-1,57.52s-6.48,9-6.48,9-6.49.28-6.49-9,5.35-57.52-1-57.52c-2.8,0-6.49,52.65-6.49,58.17,0,3-.89,7.87-7.5,7.87s-5.09-6.69-3.94-16.52,7.88-50.63,4.32-51.94-26.67,61-9.39,78.82c4.32,4.46,6,5.77,30.5,5.77"/><path class="cls-2" d="M338.21,416.16c4.23,0,4.22-5.4,4.22-5.4V196.9H334V410.76s0,5.4,4.22,5.4"/><path class="cls-19" d="M323,215s10.3-16.41,14.24-11.42-3.2,10.88-3.2,10.88,9.64,9.43-1.66,15.64Z"/><path class="cls-20" d="M336.1,223.12c-.43,3.26,3.76,4.75,9.74,2.16s11.87-17.45-3.41-22.69v5s-6.2-1.16-6.33,2.49,6.33,2.89,6.33,2.89-6.32.65-6.35,3.28,6.35,3.81,6.35,3.81S336.54,219.72,336.1,223.12Z"/><polygon class="cls-3" points="333.99 185.75 333.99 196.9 337.08 196.9 338.21 196.9 342.43 196.9 342.43 185.75 333.99 185.75"/><path class="cls-19" d="M194.23,302.34s4,5.53,4,9.63l-3.77.46-4.27-10.09Z"/><path class="cls-16" d="M198.51,332.38h-.09a1.73,1.73,0,0,1-1.6-1.84c0-.09.48-9.44.48-13.48,0-2.41,0-5.14-13.45-5.14s-13.5,3-13.5,4.45v14.26a1.69,1.69,0,1,1-3.38,0V316.37c0-5.64,4.89-7.94,16.88-7.94,12.43,0,16.83,2.26,16.83,8.63,0,4.13-.46,13.28-.48,13.66A1.71,1.71,0,0,1,198.51,332.38Z"/><path class="cls-16" d="M212.88,339.7s5.89,26.31-.1,33.43-18.81,8.7-29,8.7-23-1.58-29-8.7-.09-33.43-.09-33.43Z"/><path class="cls-8" d="M217.41,335.75a5,5,0,0,0-5-5.12H155.19a5,5,0,0,0-4.95,5.12h0a5,5,0,0,0,4.95,5.11h57.26a5,5,0,0,0,5-5.11Z"/><path class="cls-2" d="M160.94,330.63a39.05,39.05,0,0,0-9.1-10.23c-6.16-4.95-9.59-6.91-7.94-9.27s13,5.9,13,5.9-11.82-17.45-8.26-20.07,12.33,19.54,12.33,19.54-3.81-18.23,0-18.36,9.92,17.9,5.09,32.49Z"/><path class="cls-20" d="M177.13,302.73s-1.63,5.53-2.25,9.17-.76,8.9,9.35,9.29,10.82-4.77,10.11-9.44-1.51-8.58-1.51-8.58Z"/><path class="cls-7" d="M333.44,230.6s-3.77,3.42-9.19,7.66l-2,1.52c-8.26,6.28-19.39,13.59-27.25,14.35-9.34.92-26.42-26.87-26.42-26.87l3.05,184.12s16.41,15.35,13.92,16.33c-19.15,7.6-39-1.31-39.2-10.16s-6.57-114.25-6.57-114.25-10.3,108.61-10.3,115.55c0,16.15-39.87,10.63-40.06,6.89s15.26-12.19,15.64-15.54l5.34-182.94c-9.92,19-13.17,40.33-14.32,55.15-.05.82-.12,1.62-.17,2.42-.5,7.6-.45,13.14-.58,15.21-.39,6.1-13.73,3.34-19.08,2.56-3-.44-2.87-8.63-1.4-19.53.1-.79.22-1.6.34-2.41,1.82-12.34,5.13-27.52,7.74-38.85,5.16-22.43,17-37.76,28.32-51.65.45-.55.89-1.07,1.34-1.57a0,0,0,0,1,0,0,41.36,41.36,0,0,1,9.45-7.94l.52-.31c.63-.36,1.25-.7,1.84-1a23.91,23.91,0,0,1,7.68-2.55l13.73-.44c2.31,0,5,1,7.81,2.74q.5.3,1,.63c.4.26.78.52,1.19.81a77.87,77.87,0,0,1,9.77,8.6c15.42,15.71,31.22,40.29,31.22,40.29l13-7.72,2.1-1.25,11-6.57C330.58,219.78,333.44,230.6,333.44,230.6Z"/><g class="cls-15"><path class="cls-21" d="M255.82,180.54c-1,12.84-9.07,17.52-9.46,17.73a1.11,1.11,0,0,1-1.48-.38l-6.06-9.41a59.89,59.89,0,0,0-5.7,9.28,1.15,1.15,0,0,1-.8.62,1.1,1.1,0,0,1-1-.26c-.45-.42-9.32-8.76-9.29-17.5l.52-.3c.63-.37,1.25-.7,1.84-1-.86,6.43,4.93,13.35,7.38,16a68.77,68.77,0,0,1,6.21-9.56,1.15,1.15,0,0,1,.93-.42,1.12,1.12,0,0,1,.89.51l6.32,9.8c2.06-1.55,7.13-6.39,7.49-16.55q.5.3,1,.63C255,180,255.41,180.25,255.82,180.54Z"/></g><path class="cls-22" d="M196.09,282.41c-.05.82-.12,1.62-.17,2.42a41.7,41.7,0,0,1-7.84.76,34.48,34.48,0,0,1-13.22-2.52c.1-.79.22-1.6.34-2.41a32.46,32.46,0,0,0,13,2.58A38.19,38.19,0,0,0,196.09,282.41Z"/><path class="cls-23" d="M182.06,292.3a2,2,0,1,0-2,2.11A2.07,2.07,0,0,0,182.06,292.3Z"/><ellipse class="cls-23" cx="321.64" cy="220.75" rx="2.04" ry="2.11"/><path class="cls-22" d="M324.25,238.26l-2,1.52c-1.6-8.21-9-15.17-12.45-18.08l2.1-1.25C315.66,223.66,322.25,230.25,324.25,238.26Z"/><path class="cls-9" d="M285.56,427.71c-19.15,7.6-39-1.31-39.2-10.16-.07-2.85-.76-15.71-1.69-31.83-1.95-34-4.88-82.42-4.88-82.42s-4.57,48.18-7.63,82.41h0c-1.52,17.16-2.67,30.81-2.67,33.13,0,16.15-39.87,10.63-40.06,6.89s15.26-12.19,15.64-15.54l.74-25.05,4.6-157.89c5.75-18.61,2.19-38.67,2.19-38.67a0,0,0,0,1,0,0,41.13,41.13,0,0,1,10-8.25c.09,5.84.78,30.85,6.23,33,6.17,2.39,20.34,3.77,26.6-3.49,5.39-6.23.65-24.94-.78-30.06a71.08,71.08,0,0,1,11,9.41c-1.26,18.56,3,38.13,3,38.13l1.6,96.6.52,30.92.5,30.94.43,25.66S288.05,426.73,285.56,427.71Z"/><g class="cls-15"><path d="M239.78,303.47c-8.86,0-11.34-4.18-11.45-4.36a1.19,1.19,0,0,1,.4-1.59,1.11,1.11,0,0,1,1.55.41s2.06,3.21,9.5,3.21,9.5-3.19,9.52-3.22a1.12,1.12,0,0,1,1.55-.38,1.17,1.17,0,0,1,.38,1.57C251.13,299.29,248.65,303.47,239.78,303.47Z"/></g><path class="cls-24" d="M255.22,269.56A18.11,18.11,0,0,1,239,278.61c-7.58,0-13.26-4.65-16.89-13.83a57.69,57.69,0,0,1-3.56-18.63l41.71.9C260.53,254.45,259.21,263.16,255.22,269.56Z"/><path class="cls-24" d="M260.06,244.72l-41.58-.89c0-4.54.49-8,1-9.09l38.77,1.71A31.91,31.91,0,0,1,260.06,244.72Z"/><path class="cls-17" d="M238.1,235.61s.9-19.14,5.62-18.71,1.16,8.13,1.16,8.13,11.68-18.56,15.35-13-10.88,14.54-10.88,14.54,5.62-2.37,6.78.49-9.41,9-9.41,9Z"/><path class="cls-5" d="M232.16,385.71h0c-1.52,17.16-2.67,30.81-2.67,33.14,0,16.14-39.87,10.62-40.06,6.88s15.26-12.19,15.64-15.54l.74-25.05C206.29,385.37,219.32,391.2,232.16,385.71Z"/><path class="cls-5" d="M285.56,427.71c-19.15,7.6-39-1.3-39.2-10.16-.07-2.85-.76-15.7-1.69-31.83,0,0,11.83,6.76,26.54,0l.43,25.67S288.05,426.73,285.56,427.71Z"/><path class="cls-24" d="M270.71,354.78a15.51,15.51,0,0,1-.52-30.92Z"/><path class="cls-11" d="M304,124.62c-29.89-11.55-65.64-13.35-65.64-13.35s-35.74,1.8-65.64,13.35c-4.16,1.6,28,16.85,65.64,16.85S308.13,126.22,304,124.62Z"/><path class="cls-20" d="M245.83,166.2v14.94s-.29,5.35-7,5.35-6.78-5.21-6.78-5.21V166.2Z"/><path class="cls-19" d="M245.83,166.2v11.12c-1.92.36-11.15-1-13.73-3.8V166.2Z"/><path class="cls-19" d="M266.36,129.11s4.83-5.11,8.65-1.31,3.72,23-9.27,20.33Z"/><path class="cls-19" d="M207.36,129.11s-4.83-5.11-8.65-1.31-3.72,23,9.27,20.33Z"/><path class="cls-20" d="M266.08,148a.19.19,0,0,1,0,.08c-3,11.74-10.33,22.58-26.28,22.58-18.36,0-27.52-10.83-31.9-22.53a.18.18,0,0,0,0-.05c-6.53-17.49-2.42-39.27-2.42-39.27l12.42-.06,37.16-.18,10.49-.06S270.59,130.45,266.08,148Z"/><path class="cls-25" d="M218.9,124.68s9.07-8.55,11.83-4.91S229.3,125.47,218.9,124.68Z"/><path class="cls-25" d="M228.69,132.56c.4-1.26.05-2.51-.78-2.79s-1.82.51-2.23,1.77-.05,2.5.78,2.78S228.29,133.81,228.69,132.56Z"/><path class="cls-25" d="M256.89,125.5s-9.06-8.55-11.82-4.91S246.5,126.29,256.89,125.5Z"/><path class="cls-25" d="M246.92,132.07c-.28-1.28.18-2.48,1-2.67s1.76.69,2,2-.18,2.47-1,2.67S247.2,133.35,246.92,132.07Z"/><path class="cls-19" d="M235.32,144.76s6.07,1.08,5.91-2.81-4-10.76-4-10.76,6.59,7.85,6.55,11.37S239.49,147.26,235.32,144.76Z"/><path d="M238.89,153.6a23,23,0,0,1-8.85-1.67,1.17,1.17,0,0,1-.57-1.53,1.12,1.12,0,0,1,1.49-.6,20.92,20.92,0,0,0,7.93,1.48,10.88,10.88,0,0,0,6.89-2.17,1.11,1.11,0,0,1,1.59.1,1.2,1.2,0,0,1-.09,1.64A12.91,12.91,0,0,1,238.89,153.6Z"/><path class="cls-19" d="M238.91,159.25a12.65,12.65,0,0,1-1.79-.12,1.16,1.16,0,0,1-.93-1.33,1.14,1.14,0,0,1,1.29-1,9.06,9.06,0,0,0,4.6-.5,1.12,1.12,0,0,1,1.5.58,1.19,1.19,0,0,1-.56,1.54A9.85,9.85,0,0,1,238.91,159.25Z"/><path class="cls-25" d="M266.08,148c.13-1.15,1.63-15.09-2.15-20.66-3-4.39-7.47-13-8.89-18.77l10.49-.06S270.59,130.45,266.08,148Z"/><path class="cls-25" d="M208,123.47c-3.81,6.54-.3,23.62-.09,24.63-6.53-17.49-2.42-39.27-2.42-39.27l12.42-.06C218.88,113.35,211.3,117.78,208,123.47Z"/><path class="cls-11" d="M268.67,110.59s-34.14-8.62-66.42.67c0,0,1.48-6.49,3.26-13.53,1.73-6.87,3.76-14.27,5-16.66,2.48-4.86,2.74-6.61,15.56-8.36s22-4.85,25.62.94c1.5,2.39,4.62,9,7.79,16.06C264,99.77,268.67,110.59,268.67,110.59Z"/><path class="cls-3" d="M268.67,110.59s-34.14-8.62-66.42.67c0,0,1.48-6.49,3.26-13.53a125.69,125.69,0,0,1,54-8C264,99.77,268.67,110.59,268.67,110.59Z"/><path class="cls-26" d="M291.41,114.1c-22.22-10.52-53.09-10.52-53.09-10.52s-30.87,0-53.09,10.52c-13.72,6.49-12.55,10.52-12.55,10.52,29.9-11.55,65.64-13.35,65.64-13.35s35.75,1.8,65.64,13.35C304,124.62,305.13,120.59,291.41,114.1Z"/><path class="cls-19" d="M222.71,140.7a3.89,3.89,0,0,0-2.93-1.41,3.16,3.16,0,0,0-3,3.06,3.51,3.51,0,0,0,1.11,2.7,4.4,4.4,0,0,0,3.15,1,3.54,3.54,0,0,0,1.86-.45,3.26,3.26,0,0,0,1.41-1.9,3.8,3.8,0,0,0-1.8-4.25,3.45,3.45,0,0,0-1.83-.44,3.81,3.81,0,0,0-3,1.78,4.15,4.15,0,0,0,1.77,5.66,7.93,7.93,0,0,0,2.21.76,4.19,4.19,0,0,0,2,0,3.22,3.22,0,0,0,1.91-1.42c1.11-1.71.35-4-.94-5.34a5.46,5.46,0,0,0-2.21-1.39,5.72,5.72,0,0,0-1.3-.23,3.36,3.36,0,0,0-1.91.42,4.22,4.22,0,0,0-1.79,2.59,7.21,7.21,0,0,0-.2,1A4.72,4.72,0,0,0,217,144a5.05,5.05,0,0,0,.22,1.28,4.69,4.69,0,0,0,.93,1.64,3.92,3.92,0,0,0,2.06,1.26,4.44,4.44,0,0,0,2.45-.11,5,5,0,0,0,1.09-.52,4.84,4.84,0,0,0,1.3-1.29,4.52,4.52,0,0,0,.76-2.42,5.42,5.42,0,0,0-.6-2.53,5.32,5.32,0,0,0-1.74-1.94,5.18,5.18,0,0,0-2.56-.83,4.84,4.84,0,0,0-4.55,2.5,4.91,4.91,0,0,0-.61,2.51,4.51,4.51,0,0,0,.23,1.31,5.35,5.35,0,0,0,1,1.7,6.24,6.24,0,0,0,4,2c.48.06,1,.15,1.46.17a3.83,3.83,0,0,0,2-.46,4,4,0,0,0,1.82-2.33,6.71,6.71,0,0,0,.3-1.94,5.44,5.44,0,0,0-.52-2.7c-.91-1.8-3.15-2.18-5-2.21s-4,.39-5,2.18a3.86,3.86,0,0,0-.46,1.78,3.19,3.19,0,0,0,.52,1.78,2.78,2.78,0,0,0,1.5,1.15,2.58,2.58,0,0,0,1.92-.25,2.5,2.5,0,0,0,1.15-1.5,2.43,2.43,0,0,0-.25-1.92l-.12-.19.26.59a.73.73,0,0,1-.06-.21l.09.67a1.5,1.5,0,0,1,0-.3l-.09.66a1.71,1.71,0,0,1,.09-.3l-.25.6a1,1,0,0,1,.16-.26l-.39.5a1.2,1.2,0,0,1,.23-.22l-.5.39a1.79,1.79,0,0,1,.38-.22l-.6.25a4.14,4.14,0,0,1,.86-.2l-.67.09a8.59,8.59,0,0,1,2.15,0l-.67-.09a5.16,5.16,0,0,1,1.1.25l-.59-.25a1.58,1.58,0,0,1,.36.2l-.5-.39a1.67,1.67,0,0,1,.23.23l-.39-.51a1.78,1.78,0,0,1,.17.3l-.26-.6a2,2,0,0,1,.13.5l-.09-.67a6.66,6.66,0,0,1,0,1.48l.09-.67a3,3,0,0,1-.21.8l.25-.59a1.31,1.31,0,0,1-.21.36l.4-.51a1.81,1.81,0,0,1-.24.24l.5-.39a1.88,1.88,0,0,1-.24.14l.6-.26a1.57,1.57,0,0,1-.29.08l.66-.09a5.38,5.38,0,0,1-1.2-.07l.67.08a6.24,6.24,0,0,1-1.65-.41l.6.25a3.9,3.9,0,0,1-.76-.45l.51.39a3.24,3.24,0,0,1-.49-.49l.39.51a2.47,2.47,0,0,1-.31-.52l.25.6a2.23,2.23,0,0,1-.16-.56l.09.66a2.62,2.62,0,0,1,0-.56l-.09.66a2.36,2.36,0,0,1,.19-.69l-.25.59a2.77,2.77,0,0,1,.33-.55l-.39.51a3,3,0,0,1,.39-.4l-.5.4a2.07,2.07,0,0,1,.52-.3l-.6.25a3.13,3.13,0,0,1,.6-.16l-.67.09a3.37,3.37,0,0,1,.71,0l-.67-.09a3.37,3.37,0,0,1,.69.19l-.6-.25a2.91,2.91,0,0,1,.59.34l-.51-.39a3.12,3.12,0,0,1,.45.44l-.4-.5a2.92,2.92,0,0,1,.37.61l-.25-.59a3.16,3.16,0,0,1,.21.76l-.09-.67a3.31,3.31,0,0,1,0,.63l.09-.66a3.46,3.46,0,0,1-.14.53l.25-.6a2.38,2.38,0,0,1-.25.44l.39-.51a2.32,2.32,0,0,1-.35.35l.51-.39a2.68,2.68,0,0,1-.49.28l.6-.25a2.55,2.55,0,0,1-.54.15l.67-.09a2,2,0,0,1-.55,0l.66.09a1.86,1.86,0,0,1-.39-.1l.6.25a2.53,2.53,0,0,1-.36-.2l.51.39a2.42,2.42,0,0,1-.32-.32l.39.5a2.5,2.5,0,0,1-.23-.39l.25.59a2.46,2.46,0,0,1-.16-.59l.09.66a3.32,3.32,0,0,1,0-.89l-.09.67a5,5,0,0,1,.33-1.2l-.25.6a2.28,2.28,0,0,1,.2-.38l-.39.5a.49.49,0,0,1,.12-.13l-.51.4a.42.42,0,0,1,.14-.09l-.6.25a1.09,1.09,0,0,1,.24-.07l-.66.09a2,2,0,0,1,.49,0l-.66-.09a3.46,3.46,0,0,1,.7.19l-.6-.25a3.11,3.11,0,0,1,.63.38l-.51-.39a2.56,2.56,0,0,1,.52.52l-.39-.51a3.14,3.14,0,0,1,.37.64l-.25-.59a3.24,3.24,0,0,1,.16.53l-.09-.66a1.7,1.7,0,0,1,0,.45l.09-.66a.89.89,0,0,1-.07.28l.25-.59a1.62,1.62,0,0,1-.1.18l.39-.51a.67.67,0,0,1-.14.15l.5-.39-.14.08.6-.25a1.1,1.1,0,0,1-.26.06l.67-.08h-.28l.67.09a6.58,6.58,0,0,1-1.58-.42l.59.25a3.33,3.33,0,0,1-.58-.33l.5.39a2.16,2.16,0,0,1-.37-.37l.39.51a2.51,2.51,0,0,1-.26-.45l.26.6a1.53,1.53,0,0,1-.11-.42l.09.67a1.93,1.93,0,0,1,0-.34l-.09.67a1.12,1.12,0,0,1,.1-.31l-.26.59a2.13,2.13,0,0,1,.16-.25l-.39.51a1.45,1.45,0,0,1,.22-.21l-.51.39a2.2,2.2,0,0,1,.26-.15l-.6.26a1.48,1.48,0,0,1,.36-.1l-.67.09a.94.94,0,0,1,.29,0l-.66-.09a.83.83,0,0,1,.21.06l-.6-.25a1.08,1.08,0,0,1,.26.14l-.51-.39a2.08,2.08,0,0,1,.21.21l-.39-.5a1.5,1.5,0,0,1,.19.32l-.25-.59a2.45,2.45,0,0,1,.08.29l-.09-.67a1.21,1.21,0,0,1,0,.38l.09-.67a.79.79,0,0,1-.06.22l.25-.59a.72.72,0,0,1-.11.19l.39-.5a.52.52,0,0,1-.11.1l.51-.39-.08,0,.6-.25-.17,0,.67-.09a4.78,4.78,0,0,1-1,0l.66.09a2.11,2.11,0,0,1-.43-.12l.6.26a1.92,1.92,0,0,1-.31-.18l.5.39-.14-.14.39.51a1.09,1.09,0,0,1-.14-.23l.25.6a2,2,0,0,1-.09-.33l.09.66a.76.76,0,0,1,0-.26l-.09.67a1,1,0,0,1,.05-.18l-.25.59a.27.27,0,0,1,.06-.1l-.39.5a.8.8,0,0,1,.13-.13l-.51.39.13-.07-.6.25.16,0-.66.09h.15l-.66-.09a1,1,0,0,1,.23.06l-.59-.25a1.83,1.83,0,0,1,.38.23l-.51-.39a4.89,4.89,0,0,1,.4.39A2.53,2.53,0,0,0,221,145a2.5,2.5,0,0,0,1.76-4.27Z"/><path class="cls-19" d="M255.11,145.47a3.6,3.6,0,0,0,1.52-.86,3.73,3.73,0,0,0,.36-.43,2.83,2.83,0,0,0,.34-.51,3.49,3.49,0,0,0,.42-1.7,3.18,3.18,0,0,0-.36-1.42,2.64,2.64,0,0,0-1.64-1.2,3.24,3.24,0,0,0-3.5,1.54,3.67,3.67,0,0,0-.48,1.64,3.53,3.53,0,0,0,.43,1.78,4.89,4.89,0,0,0,1.67,1.77,3.57,3.57,0,0,0,3,.66,3.14,3.14,0,0,0,2.27-3.15,4,4,0,0,0-.69-2.18,4.51,4.51,0,0,0-1.62-1.48,4.65,4.65,0,0,0-2.16-.55,4.11,4.11,0,0,0-3.64,2.21,4.94,4.94,0,0,0-.53,2.19,4.75,4.75,0,0,0,.53,2.16,4.55,4.55,0,0,0,.63.88,3.79,3.79,0,0,0,.91.73,5.16,5.16,0,0,0,1.91.69,6.31,6.31,0,0,0,1.36.16,3.49,3.49,0,0,0,3.4-2.68,5.74,5.74,0,0,0-.6-4,4.15,4.15,0,0,0-.35-.57,5.68,5.68,0,0,0-.77-.93,5,5,0,0,0-1-.69,4.42,4.42,0,0,0-1.74-.47,4,4,0,0,0-2.31.59,5.54,5.54,0,0,0-1.72,1.72,5.34,5.34,0,0,0-.75,1.77,4.73,4.73,0,0,0,.06,2.61,4.57,4.57,0,0,0,.94,1.57,4.92,4.92,0,0,0,1,.79,4.51,4.51,0,0,0,1.69.67,5.49,5.49,0,0,0,2.42,0,4.92,4.92,0,0,0,2-1.12,4.57,4.57,0,0,0,.72-.86,4.48,4.48,0,0,0,.47-1,2.35,2.35,0,0,0,.14-.52,5.59,5.59,0,0,0,.1-1.15,4.85,4.85,0,0,0-.61-2.17,4.1,4.1,0,0,0-1.57-1.55,5,5,0,0,0-2.58-.55,9,9,0,0,0-1.26.16,6.3,6.3,0,0,0-1.19.44,4.84,4.84,0,0,0-1.88,1.62,4.59,4.59,0,0,0-.8,2.34,3.91,3.91,0,0,0,.57,2.34,4.25,4.25,0,0,0,2.24,1.74,3.3,3.3,0,0,0,1.13.17,4,4,0,0,0,1.69-.44,2.48,2.48,0,0,0,1.15-1.5,2.52,2.52,0,0,0-.25-1.92,2.48,2.48,0,0,0-1.49-1.15l-.67-.09a2.43,2.43,0,0,0-1.26.34l-.05,0,.59-.25a1.07,1.07,0,0,1-.27.07l.67-.09h-.28l.67.09a1.19,1.19,0,0,1-.38-.11l.59.26a1.75,1.75,0,0,1-.29-.18l.5.39a1.53,1.53,0,0,1-.29-.28l.39.51a2.38,2.38,0,0,1-.18-.3l.25.59a1.86,1.86,0,0,1-.12-.42l.09.66a3.38,3.38,0,0,1,0-.45l-.09.67a2.65,2.65,0,0,1,.15-.57l-.25.6a2.36,2.36,0,0,1,.3-.51l-.39.5a2.65,2.65,0,0,1,.38-.37l-.5.39a2.77,2.77,0,0,1,.6-.35l-.6.25a3.94,3.94,0,0,1,.88-.23l-.66.09a3.86,3.86,0,0,1,1,0l-.67-.09a2.41,2.41,0,0,1,.6.16l-.6-.25a2,2,0,0,1,.32.18l-.51-.39a1.33,1.33,0,0,1,.29.29l-.39-.51a2,2,0,0,1,.24.4l-.25-.6a2.73,2.73,0,0,1,.15.56l-.09-.66a2.74,2.74,0,0,1,0,.64l.08-.66a2,2,0,0,1-.15.57l.25-.6a2.09,2.09,0,0,1-.26.46l.39-.51a2.57,2.57,0,0,1-.33.33l.5-.39a2.11,2.11,0,0,1-.52.31l.6-.25a2.88,2.88,0,0,1-.64.17l.66-.09a3.05,3.05,0,0,1-.74,0l.67.09a2.94,2.94,0,0,1-.72-.19l.6.25a3,3,0,0,1-.6-.35l.5.39a2.87,2.87,0,0,1-.39-.39l.39.51a2.6,2.6,0,0,1-.21-.36l.25.59a2,2,0,0,1-.11-.42l.09.66a3,3,0,0,1,0-.6l-.08.67a3.7,3.7,0,0,1,.23-.85l-.26.6a4,4,0,0,1,.43-.75l-.39.5a3,3,0,0,1,.5-.51l-.51.39a2.31,2.31,0,0,1,.48-.28l-.59.25a1.76,1.76,0,0,1,.41-.11l-.67.09a2.28,2.28,0,0,1,.37,0l-.66-.09a1.63,1.63,0,0,1,.42.11l-.6-.26a2.22,2.22,0,0,1,.42.25l-.51-.39a2.4,2.4,0,0,1,.45.45l-.39-.51a4.33,4.33,0,0,1,.49.86l-.25-.6a3.73,3.73,0,0,1,.27.92l-.09-.67a2.66,2.66,0,0,1,0,.69l.09-.66a2,2,0,0,1-.1.41l.25-.6a1.43,1.43,0,0,1-.15.27l.39-.51a1,1,0,0,1-.17.18l.51-.39-.22.13.59-.26-.22.07.66-.09a2.52,2.52,0,0,1-.55,0l.66.09a5.19,5.19,0,0,1-1.29-.32l.59.26a2.55,2.55,0,0,1-.5-.3l.51.39a1.6,1.6,0,0,1-.26-.26l.39.51a2.06,2.06,0,0,1-.23-.41l.25.6a2.19,2.19,0,0,1-.14-.5l.09.66a2.29,2.29,0,0,1,0-.64l-.09.67a2.56,2.56,0,0,1,.15-.56l-.25.6a1.69,1.69,0,0,1,.24-.41l-.4.51a2,2,0,0,1,.29-.29l-.5.39a1.31,1.31,0,0,1,.36-.21l-.59.25a1.82,1.82,0,0,1,.4-.11l-.66.09a1.85,1.85,0,0,1,.47,0l-.67-.09a2.73,2.73,0,0,1,.51.14l-.59-.25a2.59,2.59,0,0,1,.46.26l-.5-.39a2.22,2.22,0,0,1,.37.38l-.39-.51a2,2,0,0,1,.22.37l-.25-.6a1.62,1.62,0,0,1,.12.43l-.09-.67a1.71,1.71,0,0,1,0,.32l.09-.67a.94.94,0,0,1-.06.24l.25-.6a.51.51,0,0,1-.09.16l.39-.51-.09.08.51-.39-.12.06.6-.25a.28.28,0,0,1-.13,0l.67-.09h-.2l.66.09-.27-.08.6.25a3.3,3.3,0,0,1-.59-.38l.5.39a3.2,3.2,0,0,1-.53-.51l.39.5a1.63,1.63,0,0,1-.19-.34l.25.6a1.25,1.25,0,0,1-.07-.26l.09.67a1.93,1.93,0,0,1,0-.24l-.09.67.06-.23-.25.6a1.35,1.35,0,0,1,.15-.26l-.39.51.16-.16-.51.39L256,144l-.6.25.15,0-.66.09a.38.38,0,0,1,.15,0l-.66-.09.1,0-.6-.25.05,0-1.15-1.49v.06l-.09-.66a1.93,1.93,0,0,1,0,.24l.08-.67a1,1,0,0,1-.07.29l.25-.59a1.74,1.74,0,0,1-.15.26l.39-.51a1.34,1.34,0,0,1-.2.21l.5-.39a.82.82,0,0,1-.2.12l.6-.25-.17.06a2.52,2.52,0,0,0-1.75,3.07,2.55,2.55,0,0,0,1.15,1.5,2.69,2.69,0,0,0,1.93.25Z"/></svg>