<svg id="OBJECTS" xmlns="http://www.w3.org/2000/svg" viewBox="0 0 500 500"><defs><style>.cls-1{fill:#e5d4b3;}.cls-2{fill:#79ad6c;}.cls-3{fill:#ff7145;}.cls-4{fill:#835233;}.cls-5{fill:#e8c52e;}.cls-24,.cls-6{opacity:0.3;}.cls-12,.cls-24,.cls-7{fill:#fff;}.cls-8{fill:#a26b23;}.cls-9{fill:#98a09b;}.cls-10,.cls-12,.cls-13,.cls-23,.cls-24{isolation:isolate;}.cls-10,.cls-15{opacity:0.2;}.cls-11{fill:#6d5321;}.cls-12,.cls-23{opacity:0.4;}.cls-13{opacity:0.1;}.cls-14{fill:#ff9e4e;}.cls-16{fill:#b98647;}.cls-17{fill:#96d3a5;}.cls-18{fill:#a5a5a5;}.cls-19{fill:#ff9879;}.cls-20{fill:#ffbc94;}.cls-21{fill:#ada18c;}.cls-22{fill:#e6dece;}.cls-25{fill:#262626;}.cls-26{fill:#876729;}</style></defs><path class="cls-1" d="M147.33,209.41h59a5.2,5.2,0,0,1,5.11,5.28v97.46a5.2,5.2,0,0,1-5.11,5.28h-59a5.2,5.2,0,0,1-5.12-5.28V214.69A5.2,5.2,0,0,1,147.33,209.41Z"/><path class="cls-2" d="M177.85,300.09s-6.38,4.94-12.13,1.58c-5.47-3.22-3.71-10.34-3.71-10.34a7.47,7.47,0,0,1-6.65-5.67c-1.26-5.37,3.68-7.8,3.68-7.8s-6-1.91-5.45-7.47,3.45-5.48,3.45-5.48-5.44-1.65-5.88-6.17a8.53,8.53,0,0,1,2.84-7.13s-5.31-3.82-4-9,5.56-5,5.56-5-2.19-5.48,2.37-8.26,6.4,0,6.4,0-.17-9.49,6.07-10.51,8.25,6.33,8.25,6.33,2.95-5.54,9.89-1.39c3.77,2.26,3.77,8.78,3.77,8.78s3.62-1.46,6.06,2.87-1.53,10.33-1.53,10.33A11.61,11.61,0,0,1,203.7,255c.92,7.12-3.12,10.9-3.12,10.9a8.37,8.37,0,0,1,2.28,7.51c-.84,4.78-4.21,6.09-4.21,6.09s2.95,6.77,1.53,10.08-7,3.65-7,3.65,1.31,5.33-2.56,7.64C183.16,305.42,177.85,300.09,177.85,300.09Z"/><path class="cls-3" d="M167,285.77a3.23,3.23,0,1,0-3.22,3.32h0A3.27,3.27,0,0,0,167,285.77Z"/><path class="cls-4" d="M194,261.11c-1.15.93.39,4,.44,6.86a3.62,3.62,0,0,1-2.42,3.62h0c-1.07-4.06-2.43-5.87-3.45-5.42-1.29.57,1.46,13.66.91,17.13-.45,2.81-4.48,6.22-6,7.38-.54-5.45-1.13-11-1.72-16.18h0c5.26-2.29,3.74-11.77,3-11.88s-1,.29-1.22,2.56c-.17,1.74-1.71,3.24-2.44,3.86-.35-3-.69-5.69-1-8h0s6.74-8.21,8-13a15.47,15.47,0,0,0,.4-2.63c1.15-2,4.66-8.26,3.68-8.79s-3,2.91-3.73,4.25c-.3-3.24-1.12-5.92-2-5.56-1.54.63,0,6.83-1,11.38s-6.16,8.07-6.16,8.07h0c-.12-.67-.21-1.17-.28-1.45-1-4.07-1.67-6,1-9.22s1.46-12,0-12.42-2.28,2.34-1.87,6.86S174,244.1,174,244.1c-3.12-2.57-.82-7.29-2.91-8.15s-2.25,2-2.46,6.7,4.61,5.6,6.65,11.6c.37,1.06.47,3.63.41,7.19a23.13,23.13,0,0,1-8.23-7.73c-3.2-5.41-1.54-11.83-2.71-12.34-.65-.29-1.76,2.42-2,5.8-4.19-2.11-4.58-7.8-5.18-6.82-3.36,5.42,2.49,9,5.22,10.26A11.06,11.06,0,0,0,164.1,255c2.51,4.18,8.93,8.94,11.41,10.68-.07,1.7-.17,3.51-.29,5.42-2.72-1.91-8.86-6-9.46-5s6.53,7.77,9.12,10.11c-.34,4.75-.76,9.78-1.19,14.65-2.62-1.17-4.53-3.92-6-6.78,1.32-1.46,3.64-4.26,2.79-5.31s-2.87,1.21-4,2.63c-1.36-3.31-2.14-6.15-2.69-6-1.29.32-1.65,4.65.79,11,1.85,4.74,6.52,7.75,8.69,8.92-1.12,12.1-2.21,22.15-2.21,22.15h14.35c0-4-.52-11.37-1.29-19.7,8.86-8.4,9.67-15.57,8.74-21.9.87-1,3.29-3.78,3.87-6.61C197.48,265.82,195.19,260.19,194,261.11Z"/><path class="cls-5" d="M161.86,255.59a2.65,2.65,0,1,0-2.65,2.73,2.69,2.69,0,0,0,2.65-2.73Z"/><path class="cls-5" d="M187,229a2.66,2.66,0,1,0-2.66,2.74A2.69,2.69,0,0,0,187,229Z"/><ellipse class="cls-3" cx="164.51" cy="229.21" rx="4.32" ry="4.45"/><ellipse class="cls-3" cx="190.65" cy="255.59" rx="3.22" ry="3.32"/><path class="cls-3" d="M163.69,270.9a3.58,3.58,0,1,0-3.58,3.7A3.63,3.63,0,0,0,163.69,270.9Z"/><path class="cls-5" d="M197,285.77a2.66,2.66,0,1,0-2.66,2.74,2.7,2.7,0,0,0,2.66-2.74Z"/><path class="cls-1" d="M236.57,147.54v43.3a5.2,5.2,0,0,1-5.12,5.27H147.11a5.19,5.19,0,0,1-5.11-5.27v-43.3a5.2,5.2,0,0,1,5.11-5.28h84.34A5.2,5.2,0,0,1,236.57,147.54Z"/><g class="cls-6"><path class="cls-7" d="M236.57,159.34v31.5a5.2,5.2,0,0,1-5.12,5.27H147.11a5.19,5.19,0,0,1-5.11-5.27V164.26c2.34-2.21,5-4.07,7.36-3.69s18.72,9.49,21.07,11.21c2,1.72,29.11,9.31,34.27,5.17a146.62,146.62,0,0,0,14.2-13.11c4.85-5,8.36-8.79,15.39-5.86A15.08,15.08,0,0,1,236.57,159.34Z"/></g><path class="cls-8" d="M236.57,187.26v3.58a5.2,5.2,0,0,1-5.12,5.27H147.11a5.19,5.19,0,0,1-5.11-5.27v-3.58Z"/><rect class="cls-9" x="190.99" y="158.87" width="3.94" height="7.03"/><path class="cls-3" d="M196.18,168.38v15H155.3a16.79,16.79,0,0,1-1.91-4c-1.22-3.55-2.33-9.42-.8-17.47,1.68-8.9,8-10.14,8-10.14h13.65c9.34,0,9.1,10.73,9.1,10.73C191.71,163.72,196.18,165.21,196.18,168.38Z"/><path class="cls-10" d="M196.18,179.35v4H155.3a16.72,16.72,0,0,1-1.91-4Z"/><path class="cls-11" d="M155.3,162.43a7.65,7.65,0,0,1,5.62-7.84h13.3a5.57,5.57,0,0,1,4.23,1.58c2.14,2.24,2.12,6.21,2.12,6.25l0,2.5H157.69S155.3,165.24,155.3,162.43Z"/><rect class="cls-3" x="167.66" y="154.59" width="2.99" height="10.33"/><ellipse class="cls-11" cx="163.48" cy="180.34" rx="8.71" ry="8.98"/><path class="cls-7" d="M166.72,180.34a3.24,3.24,0,1,0-3.24,3.34,3.29,3.29,0,0,0,3.24-3.34Z"/><ellipse class="cls-11" cx="189.94" cy="182.9" rx="6.23" ry="6.43"/><path class="cls-7" d="M191.72,182.89a1.78,1.78,0,1,0-1.78,1.83h0A1.81,1.81,0,0,0,191.72,182.89Z"/><rect class="cls-11" x="192.4" y="155.76" width="2.54" height="3.12"/><path class="cls-12" d="M196.18,168.55H193a2.2,2.2,0,0,0-2.11,2.48,2.24,2.24,0,0,0,2.11,2.51h3.22Z"/><path class="cls-11" d="M174.18,176.06a.52.52,0,0,1-.51-.53v-4.17a3.32,3.32,0,0,1,2.89-3.47h11.61a.53.53,0,0,1,0,1.06H176.64a2.27,2.27,0,0,0-1.95,2.41v4.17A.52.52,0,0,1,174.18,176.06Z"/><path class="cls-11" d="M186.85,171.89h-8.8a.53.53,0,0,1,0-1.06h8.8a.53.53,0,0,1,0,1.06Z"/><path class="cls-11" d="M184.82,174.9h-6.77a.53.53,0,0,1,0-1.05h6.77a.53.53,0,0,1,0,1.05Z"/><path class="cls-7" d="M194.68,154.31c1.25,1.44,2.55-1,2.55-1s1.39,2.5,3.58,1.46,1.73-2.36,1.73-2.36,2,2.43,4.67,1.31a3.49,3.49,0,0,0,2.3-3.58s2.56,1.46,4.27,0a4.38,4.38,0,0,0,1.53-3.48s3.75-1.16,3.75-4.38H193.23s-.26,4.91,3.22,4.43c0,0-1.2,2.34.76,3.43C197.2,150.12,191.84,151,194.68,154.31Z"/><path class="cls-2" d="M149.09,191.69s-5.67-5.56-3.25-7,3.25,4.6,3.25,4.6.16-4.89,2.33-4.11S149.09,191.69,149.09,191.69Z"/><path class="cls-2" d="M175,193.42s-4.09-4-2.33-5,2.33,3.3,2.33,3.3.12-3.51,1.67-2.95S175,193.42,175,193.42Z"/><path class="cls-2" d="M201.79,188.51s-4.06-4-2.33-5,2.33,3.29,2.33,3.29.12-3.5,1.68-2.95S201.79,188.51,201.79,188.51Z"/><path class="cls-1" d="M274.64,142h78.25a5.19,5.19,0,0,1,5.11,5.27v56.44a5.2,5.2,0,0,1-5.11,5.28H274.64a5.2,5.2,0,0,1-5.11-5.28V147.27A5.19,5.19,0,0,1,274.64,142Z"/><path class="cls-3" d="M298.33,164.77c-5.39,4.62-4.68,11.38,2.32,16.65s15.09,4.13,17.64-1.27c1.94-4.09.46-7.72-2.43-10.55a23,23,0,0,0-10.08-5.31C302.59,163.53,299.68,163.61,298.33,164.77Z"/><path class="cls-2" d="M302.34,169.8c1.78-1,5.53-.84,5.53-.84l-.4,5.32,4.36-2.41a24.74,24.74,0,0,1,2.81,5.27,10.48,10.48,0,0,0,1.24-7.51,22.94,22.94,0,0,0-10.08-5.32A5.82,5.82,0,0,0,302.34,169.8Z"/><path class="cls-2" d="M325.14,187.16a14,14,0,0,0,.13,1.44c1,6.37,7.3,8.87,16.25,5.08,15.19-6.45,12.27-30.45,12.27-30.45C345.76,181.6,324.92,179.73,325.14,187.16Z"/><path class="cls-13" d="M325.14,187.16a14,14,0,0,0,.13,1.44c27.25-1.21,28.53-25.37,28.53-25.37C345.76,181.6,324.92,179.73,325.14,187.16Z"/><path class="cls-2" d="M314.35,196.14h0c.28-.14,21-10.55,15.34-31.12-3.07-11.36-16.44-14.18-16.87-14.24h0s6.68,7.38,2.08,16.76S307.66,183.48,314.35,196.14Z"/><path class="cls-13" d="M314.35,196.14h0c.11-.2,3.64-6.67,8.57-21.8s-9.68-23.39-10.07-23.61h0s6.69,7.38,2.08,16.76S307.66,183.48,314.35,196.14Z"/><path class="cls-14" d="M310.07,190.07a9.64,9.64,0,0,0,.82,2.15,10.73,10.73,0,0,0,2.51,3.16h0c.26.23.52.44.79.64a14.18,14.18,0,0,0,4.71,2.47,12.22,12.22,0,0,0,2.81.52,14,14,0,0,0,11.93-5.89c4.6-6.16,1.16-14.53,4.85-16.35,4-1.94,9.92-6.38,7.38-12.13a8.76,8.76,0,0,0-.78-1.41,15.22,15.22,0,0,0-2.74-3l-.44-.38-.36-.28a10.86,10.86,0,0,0-5-2.3,8.45,8.45,0,0,0-1.81-.08c-4,.25-7.16,3.4-8.1,7.39-1.47,6.26-6.53,5-11.22,9.77C311.94,177.87,308.6,184.41,310.07,190.07Z"/><g class="cls-15"><path d="M318.91,198.49a12.32,12.32,0,0,0,2.82.53c12.1-3.17,13.17-13.84,13.73-19.33.06-.68.12-1.27.2-1.75.69-4.65,1.19-5,5.52-6.66,2.92-1.13,4.18-4.33,4.7-6.63a8.78,8.78,0,0,0-.77-1.41c-.31,2-1.3,5.9-4.29,7-4.63,1.79-5.42,2.45-6.18,7.49-.07.53-.13,1.11-.2,1.8C333.88,185.15,332.76,196.37,318.91,198.49Z"/></g><g class="cls-15"><path d="M310.07,190.07a9.64,9.64,0,0,0,.82,2.15c.58-9.56,5.44-16,13.27-17.45,5.4-1,6-3.79,7.11-8.44.19-.84.39-1.72.64-2.68,1-3.94,3.21-5.68,4.65-6.42a8.36,8.36,0,0,0-1.8-.08,11.06,11.06,0,0,0-3.84,6.23c-.25,1-.46,1.9-.64,2.71-1.07,4.65-1.54,6.77-6.29,7.64C316.24,175.13,311.22,181.14,310.07,190.07Z"/></g><g class="cls-15"><path d="M313.4,195.37h0c.26.23.52.44.79.64,3-3.16,12-12.69,15.43-17.64s10.43-14.84,12.75-18.18l-.44-.37-.36-.29c-2.29,3.27-9.28,13.27-12.79,18.24S316.31,192.32,313.4,195.37Z"/></g><path class="cls-11" d="M340.05,161.63c.81.77,8.73-3.13,5.71-6.33S338.75,160.36,340.05,161.63Z"/><path class="cls-3" d="M326.38,195.89c.55,7.2,6.32,10.51,14.53,7.64s12-10.33,9.17-15.59c-2.12-4-5.85-4.84-9.72-4a23.08,23.08,0,0,0-10,5.43C327.85,191.61,326.25,194.08,326.38,195.89Z"/><path class="cls-2" d="M332.67,195.41c.24-2.07,2.53-5.14,2.53-5.14l4,3.41.61-5.08a24.58,24.58,0,0,1,5.79.67,10,10,0,0,0-5.24-5.35,23.08,23.08,0,0,0-10,5.43A5.89,5.89,0,0,0,332.67,195.41Z"/><path class="cls-2" d="M316.27,202.21c-.62,2.8-6.07,3-8.4.11s-1.63-6.2.61-6.86.82,2.55,3.14,3.35S316.87,199.45,316.27,202.21Z"/><path class="cls-2" d="M304.19,188.09c1.37-1.87-2.38-3-1.59-6.29s-1.08-4.8-2.81-4.66-3.35,2.87-1.47,7.24S302.9,189.9,304.19,188.09Z"/><path class="cls-2" d="M288.67,163.73c.37,2.28.83,4.13.95,4.61a.51.51,0,0,0,.51.39.28.28,0,0,0,.13,0,.52.52,0,0,0,.36-.64,46.17,46.17,0,0,1-1.45-10.36,14.35,14.35,0,0,0,1.59.08,16.9,16.9,0,0,0,12.85-6.08.54.54,0,0,0-.08-.74.46.46,0,0,0-.13-.08c-4.57-1.84-10.1-.4-13.56,1.85-1.06.71-1.57,2.33-1.67,4.3h0a.09.09,0,0,0,0,.07,12.19,12.19,0,0,0,0,1.71,13.22,13.22,0,0,0-9.72-3.53S278.24,161.13,288.67,163.73Z"/><path class="cls-1" d="M281.29,230.35h66.65a8.43,8.43,0,0,1,8.3,8.56v59.74a8.43,8.43,0,0,1-8.3,8.56H281.29a8.43,8.43,0,0,1-8.3-8.56V238.91A8.43,8.43,0,0,1,281.29,230.35Z"/><ellipse class="cls-5" cx="298.49" cy="244.73" rx="4.82" ry="4.97"/><path class="cls-11" d="M299.39,242.74s-.48-2.43,1-3.65,3.86-2.28,2.21-3.82S297.51,239.74,299.39,242.74Z"/><path class="cls-3" d="M335.13,239.27a4.79,4.79,0,0,0-6.26,2.83,5,5,0,0,0,2.74,6.47,4.8,4.8,0,0,0,6.27-2.83,5,5,0,0,0-2.73-6.46Z"/><path class="cls-11" d="M332.37,243.29s-2.36-.43-2.92-2.32-.63-4.53-2.63-3.51S329,244,332.37,243.29Z"/><path class="cls-3" d="M319.7,302.78a5,5,0,0,0-3.57-6,4.83,4.83,0,0,0-5.83,3.69,5,5,0,0,0,3.57,6h0A4.83,4.83,0,0,0,319.7,302.78Z"/><path class="cls-11" d="M315.45,300.52s.07-2.48,1.79-3.32,4.26-1.31,3-3.2S314.28,297.15,315.45,300.52Z"/><ellipse class="cls-3" cx="282.65" cy="267.15" rx="4.84" ry="5"/><path class="cls-11" d="M283.29,266.16s.51-2.43,2.33-2.94,4.42-.53,3.5-2.6S282.71,262.63,283.29,266.16Z"/><ellipse class="cls-3" cx="292.69" cy="292.51" rx="4.84" ry="5"/><path class="cls-11" d="M291.76,291.78s-2.32-.66-2.69-2.58-.22-4.58-2.31-3.76S288.31,292.15,291.76,291.78Z"/><path class="cls-5" d="M341.55,297.3a5.09,5.09,0,0,0-.8-7,4.75,4.75,0,0,0-6.8.82,5.1,5.1,0,0,0,.8,7h0A4.73,4.73,0,0,0,341.55,297.3Z"/><path class="cls-11" d="M338.62,293.42s1.08-2.22,3-2.22,4.4.67,4-1.58S338.94,289.86,338.62,293.42Z"/><path class="cls-5" d="M344,271.29a4.75,4.75,0,0,0,6.79-1,5.1,5.1,0,0,0-.93-7,4.75,4.75,0,0,0-6.77.94,5.1,5.1,0,0,0,.89,7Z"/><path class="cls-11" d="M347.72,268.21s2.16,1.08,2.19,3.05-.58,4.54,1.61,4.12S351.17,268.49,347.72,268.21Z"/><path class="cls-3" d="M303.49,262.29a4.78,4.78,0,0,0-6.51,2.2,5.07,5.07,0,0,0,2.13,6.71,4.77,4.77,0,0,0,6.5-2.18,5.08,5.08,0,0,0-2.11-6.73Z"/><path class="cls-11" d="M300.37,266s-2.31-.65-2.69-2.59-.22-4.57-2.3-3.75S296.93,266.38,300.37,266Z"/><ellipse class="cls-3" cx="328.5" cy="265.94" rx="4.84" ry="4.99"/><path class="cls-11" d="M329.18,265s.59-2.4,2.45-2.83,4.44-.32,3.58-2.45S328.76,261.44,329.18,265Z"/><ellipse class="cls-5" cx="309.3" cy="264.12" rx="5.71" ry="5.89"/><ellipse class="cls-5" cx="322.32" cy="265.96" rx="4.96" ry="5.12"/><ellipse class="cls-3" cx="315" cy="264.99" rx="4.96" ry="5.12"/><path class="cls-16" d="M327.72,268.28h-2.05V262.4a11.26,11.26,0,1,0-22.5,0v5.88h-2.05V262.4a13.31,13.31,0,1,1,26.6,0Z"/><path class="cls-8" d="M335,270.69a2.39,2.39,0,0,0-2.34-2.41H296.16a2.38,2.38,0,0,0-2.33,2.41h0a2.38,2.38,0,0,0,2.33,2.41h36.51A2.38,2.38,0,0,0,335,270.69Z"/><path class="cls-16" d="M332.08,273.1c-.7,3.51-2.94,17.4-8.6,17.4H305.33c-2.55,0-4.44-2.89-5.78-6.37-.13-.35-.26-.7-.38-1.05-.28-.79-.52-1.58-.75-2.4-.1-.35-.19-.7-.28-1.05-.22-.86-.42-1.7-.59-2.48-.08-.36-.15-.72-.22-1.06-.26-1.27-.46-2.34-.59-3Z"/><path class="cls-8" d="M318.13,276.12h-7.44v-3.55a.52.52,0,0,0-.51-.53.52.52,0,0,0-.51.53v3.55h-4.75v-3.55a.51.51,0,1,0-1,0v3.55h-6.57c.07.33.14.69.22,1.05h6.35v2.48h-5.76c.09.35.18.7.28,1.05h5.48v2.4h-4.73c.12.35.25.71.38,1h4.35v2.15a.51.51,0,1,0,1,0v-2.15h4.75v2.15a.52.52,0,0,0,.51.53.52.52,0,0,0,.51-.53v-2.15h2.25a.51.51,0,0,0,.51-.52.52.52,0,0,0-.51-.53h-2.25v-2.4h5.11a.51.51,0,0,0,.51-.52.52.52,0,0,0-.51-.53h-5.11v-2.48h7.44a.52.52,0,0,0,.51-.53.51.51,0,0,0-.51-.52Zm-8.46,7h-4.75v-2.4h4.75Zm0-3.45h-4.75v-2.48h4.75Z"/><path class="cls-17" d="M315.22,308.15A34.85,34.85,0,0,1,312,320.57c-1.51,3.52-4.24,7.3-5.55,11-5.12-2.28-12.66-2.6-20.64-2.61-5.85,0-29-.28-50.7-.53a45.72,45.72,0,0,1-2.56-10.32,53.1,53.1,0,0,1-.51-8.36c0-.85.05-1.84.11-2.86.24-4,1.12-8.22,6-5.46,5,3,7.32,6.59,9,12.25-.3-2.51-2.9-16.81-.15-17.75,2.13-.78,5.94,6.44,6.85,8a28.24,28.24,0,0,1,3.5,8.64c.76-2.36,1.07-5.19,1.68-7.7.3-1.58,1.82-8.64,3.8-9,4-.47,4.88,16.18,5.34,18.69,1.06-2.67,2.89-15.23,5.94-16,3.95-.94,4.72,13.82,5.17,16.35a106.32,106.32,0,0,1,2.9-12.09c2-7.07,4.09-14.46,7.92-20.74,1.06-1.73,3.65-6.12,6.09-4.56,1.53.95,1.37,4.4,1.37,6a114.34,114.34,0,0,1-1.68,16.17,45.56,45.56,0,0,1-2.28,10.06c-.76,2.2-2.44,5.18-2.44,7.53,1.83-2.35,6.86-17.12,10.2-16.17,4.58,1.25-.3,15.55.47,18.37,2.43-3.92,3.95-8.64,6.69-12.25.92-1.41,4.27-5.65,6.1-4.71C315.83,303.13,315.22,306.9,315.22,308.15Z"/><path class="cls-17" d="M232.57,318.08c-.51,1.73-1,3.28-1.26,4.36s-.74,4.22-1.53,5.88c-19.53-.23-30.08,6.86-36.1,3.51-3.07-1.73-5.77,0-9.45.66-2.87-2.67-8.76-8.6-11.25-11.6-1.22-1.42-4.72-5.81-4.09-8,1.37-5.19,10.36,5.5,11.73,7.22-2.44-3.61-4.42-8.79-3.2-13.19,1.67-6.28,8.22,4.56,9.6,6.91-1.84-4.86-4-9.26-4.73-14.44-.46-2.68-.76-11.31,3.66-11.31,3.07,0,6.85,9,8.22,11.6,2.29,4.22,4.27,8.64,6.24,13-.3-2.67-.6-11.31,4.27-10.21,3.66.94,5.63,8.8,7.31,11.47.15-2.36.91-9.74,4.57-8.49,3,1.1,3.35,7.39,4.57,9.9.3-4.38,6.36-12.52,11.07-8.51l.05,0C234.68,309,233.69,314,232.57,318.08Z"/><path class="cls-16" d="M197,329.25c-10.74,1.41-21.69,3.1-31.32,8.21-2.52,1.33-5.21,3.34-5.39,6.26-.27,4.52,5.21,6.68,9.54,7.39a519.88,519.88,0,0,0,129,5c4.16-.36,9.69-2.56,8.79-6.76-.72-3.33-5.52-5.88-3.85-8.82,2-3.42,33.29,3.25,22.53-9.22-4.39-5.08-11.82-5.8-18.29-6.61-20.11-2.53-47.12-1.46-67.21.06Q218.88,326.4,197,329.25Z"/><path class="cls-4" d="M225.69,330s-17.45-.72-18.41,5.39,24.1,7.69,23.59,11.08c-.25,1.58-5.12,1.67-4.76,4.93s20.28,4.9,20.76,1-3.31-4.41-1.41-6.61,30.25,4.48,30.87-5.8S246.94,330.4,225.69,330Z"/><path class="cls-4" d="M194.06,332c0,4.08,9.29,2.68,9.29.53S194.07,328,194.06,332Z"/><path class="cls-4" d="M206.08,346.88a2.32,2.32,0,1,0-2.33,2.38A2.35,2.35,0,0,0,206.08,346.88Z"/><path class="cls-4" d="M281.93,349.2c.24,1.71,9.87,5.62,11,.63s-3.07-5.72-5.48-2.64C287.42,347.14,281.34,345,281.93,349.2Z"/><path class="cls-4" d="M280.68,330.82a2.16,2.16,0,1,0-2.17,2.23A2.2,2.2,0,0,0,280.68,330.82Z"/><path class="cls-18" d="M297.54,208.86c13.25,0,14.14-.71,16.47-3.12,9.33-9.62-3.15-43.25-5.08-42.57s1.72,22.74,2.34,28.05,1.44,8.92-2.13,8.92-4.05-2.61-4.05-4.22c0-3-2-31.41-3.5-31.41-3.44,0-.55,26-.55,31.05s-3.5,4.89-3.5,4.89-3.5.15-3.5-4.89,2.88-31.05-.55-31.05c-1.54,0-3.5,28.43-3.5,31.41,0,1.64-.49,4.22-4.05,4.22s-2.75-3.61-2.13-8.92,4.25-27.34,2.33-28.05-14.4,33-5.07,42.57c2.33,2.41,3.21,3.12,16.47,3.12"/><path class="cls-2" d="M297.54,333.28c2.29,0,2.28-2.91,2.28-2.91V214.88h-4.56V330.39s0,2.92,2.28,2.92"/><path class="cls-19" d="M289.29,224.65s5.56-8.85,7.67-6.16-1.73,5.87-1.73,5.87,5.21,5.09-.89,8.44Z"/><path class="cls-20" d="M296.4,229c-.23,1.75,2,2.56,5.26,1.16s6.41-9.42-1.84-12.25v2.69s-3.35-.63-3.42,1.35,3.42,1.55,3.42,1.55-3.42.36-3.43,1.77,3.43,2.06,3.43,2.06S296.63,227.2,296.4,229Z"/><polygon class="cls-3" points="295.26 208.86 295.26 214.88 296.93 214.88 297.54 214.88 299.81 214.88 299.81 208.86 295.26 208.86"/><path class="cls-19" d="M219.79,271.82s2.17,3,2.15,5.2l-2.05.24-2.31-5.44Z"/><path class="cls-16" d="M222.1,288h0a.94.94,0,0,1-.86-1s.25-5.09.25-7.27c0-1.31,0-2.78-7.25-2.78s-7.3,1.63-7.3,2.41v7.7a.91.91,0,0,1-1,.87.93.93,0,0,1-.84-.87v-7.7c0-3,2.64-4.29,9.12-4.29,6.71,0,9.08,1.22,9.08,4.66,0,2.23-.25,7.16-.26,7.38A.92.92,0,0,1,222.1,288Z"/><path class="cls-16" d="M229.86,292S233,306.2,229.81,310s-10.16,4.7-15.64,4.7-12.41-.85-15.64-4.7-.05-18.05-.05-18.05Z"/><path class="cls-8" d="M232.31,289.86a2.72,2.72,0,0,0-2.68-2.76H198.71a2.72,2.72,0,0,0-2.68,2.76h0a2.72,2.72,0,0,0,2.68,2.76h30.92A2.72,2.72,0,0,0,232.31,289.86Z"/><path class="cls-2" d="M201.84,287.1a21.17,21.17,0,0,0-4.92-5.53c-3.32-2.67-5.18-3.74-4.28-5s7,3.17,7,3.17-6.39-9.42-4.47-10.84,6.65,10.55,6.65,10.55-2-9.84,0-9.91,5.36,9.67,2.75,17.55Z"/><path class="cls-20" d="M210.56,272s-.88,3-1.22,4.94-.41,4.82,5,5,5.85-2.58,5.46-5.1-.82-4.63-.82-4.63Z"/><path class="cls-7" d="M295,233.07s-2,1.85-5,4.14l-1.07.82c-4.46,3.39-10.48,7.34-14.72,7.76-5,.49-14.27-14.52-14.27-14.52l1.65,99.43s8.86,8.29,7.52,8.82c-10.34,4.1-21.07-.7-21.17-5.49s-3.58-61.71-3.58-61.71-5.56,58.65-5.56,62.4c0,8.72-21.52,5.74-21.63,3.72s8.24-6.58,8.45-8.39l2.88-98.8c-5.35,10.25-7.11,21.79-7.73,29.78,0,.45-.07.89-.09,1.31-.27,4.11-.24,7.1-.32,8.22-.2,3.29-7.41,1.8-10.3,1.38-1.6-.23-1.53-4.66-.75-10.55.05-.42.11-.86.18-1.29,1-6.67,2.77-14.87,4.18-21,2.78-12.13,9.17-20.39,15.29-27.89.24-.3.48-.58.72-.85h0a22.59,22.59,0,0,1,5.12-4.29l.28-.16c.34-.2.67-.38,1-.53a13.27,13.27,0,0,1,4.15-1.38l7.41-.23a8.4,8.4,0,0,1,4.22,1.48,5,5,0,0,1,.51.34l.64.44a41.47,41.47,0,0,1,5.28,4.64c8.32,8.48,16.87,21.76,16.87,21.76l7-4.17,1.13-.68,6-3.55C293.42,227.23,295,233.07,295,233.07Z"/><g class="cls-15"><path class="cls-21" d="M253.05,206c-.52,6.94-4.9,9.46-5.12,9.57a.6.6,0,0,1-.29.08.61.61,0,0,1-.51-.28l-3.27-5.08a32.48,32.48,0,0,0-3.07,5,.63.63,0,0,1-.44.34.6.6,0,0,1-.51-.15c-.24-.22-5-4.74-5-9.45l.28-.16c.35-.2.68-.38,1-.53-.46,3.48,2.66,7.22,4,8.63a36.93,36.93,0,0,1,3.36-5.17.6.6,0,0,1,.87-.06l.11.11,3.41,5.28c1.11-.83,3.85-3.45,4-8.94l.52.34C252.54,205.7,252.83,205.88,253.05,206Z"/></g><path class="cls-22" d="M220.8,261.05c0,.45-.07.88-.1,1.31a23.07,23.07,0,0,1-4.23.42,18.54,18.54,0,0,1-7.16-1.37c.05-.43.12-.86.18-1.3a17.49,17.49,0,0,0,7,1.39A20.63,20.63,0,0,0,220.8,261.05Z"/><path class="cls-23" d="M213.22,266.38a1.11,1.11,0,1,0-1.1,1.14,1.12,1.12,0,0,0,1.1-1.14Z"/><ellipse class="cls-23" cx="288.59" cy="227.76" rx="1.1" ry="1.14"/><path class="cls-22" d="M290,237.21l-1.07.82c-.87-4.43-4.85-8.19-6.73-9.76l1.13-.68C285.36,229.33,288.92,232.88,290,237.21Z"/><path class="cls-9" d="M269.11,339.52c-10.34,4.1-21.07-.7-21.17-5.49,0-1.53-.41-8.48-.91-17.19-1.06-18.33-2.64-44.51-2.64-44.51s-2.47,26-4.09,44.51h0c-.82,9.26-1.45,16.64-1.45,17.89,0,8.72-21.52,5.74-21.63,3.72s8.24-6.58,8.45-8.39l.4-13.53,2.48-85.27c3.11-10,1.18-20.88,1.18-20.88h0a22.41,22.41,0,0,1,5.35-4.46c0,3.16.42,16.66,3.36,17.8,3.33,1.29,11,2,14.37-1.89,2.91-3.36.35-13.47-.42-16.23a38.58,38.58,0,0,1,5.91,5.08,84.62,84.62,0,0,0,1.62,20.57l.87,52.17.27,16.7.28,16.71.23,13.86S270.45,339,269.11,339.52Z"/><g class="cls-15"><path d="M244.39,272.42c-4.79,0-6.14-2.25-6.19-2.34a.65.65,0,0,1,.22-.87.61.61,0,0,1,.84.23s1.11,1.73,5.11,1.73,5.12-1.72,5.14-1.74a.61.61,0,0,1,.84-.2.63.63,0,0,1,.2.85C250.52,270.17,249.17,272.42,244.39,272.42Z"/></g><path class="cls-24" d="M252.72,254.11A9.76,9.76,0,0,1,244,259c-4.09,0-7.16-2.51-9.13-7.47a31,31,0,0,1-1.92-10.05l22.5.48C255.59,246,254.88,250.66,252.72,254.11Z"/><path class="cls-24" d="M255.34,240.7l-22.46-.48a14.89,14.89,0,0,1,.57-4.91l20.93.92A17.07,17.07,0,0,1,255.34,240.7Z"/><path class="cls-17" d="M243.48,235.79s.48-10.33,3-10.1.63,4.39.63,4.39,6.31-10,8.29-7-5.88,7.85-5.88,7.85,3-1.28,3.66.26-5.07,4.84-5.07,4.84Z"/><path class="cls-5" d="M240.27,316.84h0c-.82,9.27-1.44,16.64-1.44,17.89,0,8.72-21.53,5.74-21.64,3.72s8.25-6.58,8.45-8.39l.4-13.53C226.3,316.66,233.34,319.81,240.27,316.84Z"/><path class="cls-5" d="M269.11,339.52c-10.34,4.1-21.07-.7-21.17-5.48,0-1.54-.41-8.48-.91-17.19a16.45,16.45,0,0,0,14.32,0l.23,13.85S270.45,339,269.11,339.52Z"/><path class="cls-24" d="M261.09,300.14a8.38,8.38,0,0,1-.28-16.7Z"/><path class="cls-11" d="M279.06,175.84c-16.14-6.23-35.45-7.21-35.45-7.21s-19.3,1-35.44,7.21c-2.24.87,15.11,9.1,35.43,9.1S281.29,176.71,279.06,175.84Z"/><path class="cls-20" d="M247.66,198.3v8.07s-.16,2.88-3.76,2.88-3.66-2.81-3.66-2.81V198.3Z"/><path class="cls-19" d="M247.66,198.3v6c-1,.19-6-.53-7.42-2.06V198.3Z"/><path class="cls-19" d="M258.74,178.3s2.61-2.77,4.67-.71,2,12.4-5,11Z"/><path class="cls-19" d="M226.9,178.3s-2.62-2.77-4.67-.71-2,12.4,5,11Z"/><path class="cls-20" d="M258.6,188.48a0,0,0,0,1,0,0c-1.63,6.33-5.57,12.2-14.19,12.2-9.91,0-14.83-5.85-17.22-12.17v0c-3.53-9.44-1.31-21.2-1.31-21.2l6.7,0,20.07-.1,5.67,0S261,179,258.6,188.48Z"/><path class="cls-25" d="M233.12,175.88s4.88-4.62,6.38-2.64S238.73,176.3,233.12,175.88Z"/><path class="cls-25" d="M238.4,180.13c.21-.68,0-1.35-.42-1.51s-1,.28-1.2,1,0,1.35.41,1.5S238.18,180.81,238.4,180.13Z"/><path class="cls-25" d="M253.63,176.32s-4.9-4.62-6.39-2.63S248,176.74,253.63,176.32Z"/><path class="cls-25" d="M248.24,179.88c-.15-.69.1-1.34.56-1.45s.95.38,1.1,1.06-.1,1.33-.56,1.44S248.38,180.56,248.24,179.88Z"/><path class="cls-19" d="M242,186.73s3.28.59,3.19-1.51-2.15-5.81-2.15-5.81,3.58,4.22,3.54,6.14S244.23,188.07,242,186.73Z"/><path d="M243.91,191.48a12.42,12.42,0,0,1-4.78-.9.64.64,0,0,1-.3-.84.6.6,0,0,1,.81-.31,11.46,11.46,0,0,0,4.29.8,5.78,5.78,0,0,0,3.71-1.17.6.6,0,0,1,.86.05.64.64,0,0,1,0,.88h0A6.84,6.84,0,0,1,243.91,191.48Z"/><path class="cls-19" d="M243.92,194.55a6.2,6.2,0,0,1-1-.07.63.63,0,0,1-.53-.7.62.62,0,0,1,.68-.55h0a5,5,0,0,0,2.49-.27.6.6,0,0,1,.81.31.63.63,0,0,1-.3.83h0A5.47,5.47,0,0,1,243.92,194.55Z"/><path class="cls-25" d="M258.6,188.48c.07-.62.88-8.15-1.16-11.16a39.11,39.11,0,0,1-4.8-10.13l5.67,0S261,179,258.6,188.48Z"/><path class="cls-25" d="M227.21,175.22c-2,3.53-.17,12.75-.05,13.3-3.53-9.44-1.31-21.2-1.31-21.2l6.71,0C233.1,169.76,229,172.15,227.21,175.22Z"/><path class="cls-11" d="M260,168.27s-18.42-4.65-35.87.37c0,0,.8-3.51,1.76-7.31a69.32,69.32,0,0,1,2.69-9c1.34-2.63,1.49-3.57,8.41-4.52s11.86-2.63,13.81.53c.8,1.29,2.49,4.88,4.2,8.67C257.48,162.42,260,168.27,260,168.27Z"/><path class="cls-3" d="M260,168.27s-18.42-4.65-35.87.37c0,0,.8-3.51,1.76-7.31A67.67,67.67,0,0,1,255,157C257.48,162.42,260,168.27,260,168.27Z"/><path class="cls-26" d="M272.27,170.16c-12-5.68-28.67-5.68-28.67-5.68s-16.67,0-28.67,5.68c-7.41,3.51-6.78,5.68-6.78,5.68,16.15-6.23,35.45-7.21,35.45-7.21s19.3,1,35.45,7.21C279.06,175.84,279.68,173.67,272.27,170.16Z"/><path class="cls-19" d="M235.12,184.55a2,2,0,0,0-1.53-.75,1.57,1.57,0,0,0-1.1.48,1.72,1.72,0,0,0-.47,1.14,1.41,1.41,0,0,0,.09.64,1.82,1.82,0,0,0,.61.9,2.25,2.25,0,0,0,1.54.44,2,2,0,0,0,1-.23,1.71,1.71,0,0,0,.73-1.06,2.09,2.09,0,0,0-.47-1.84,1.89,1.89,0,0,0-2.72,0,1.62,1.62,0,0,0-.3.39,2.23,2.23,0,0,0,.89,3l0,0a4.47,4.47,0,0,0,1.18.41,2.2,2.2,0,0,0,1,0,1.64,1.64,0,0,0,.92-.63,2.39,2.39,0,0,0-.4-3,2.93,2.93,0,0,0-1.17-.73,2.08,2.08,0,0,0-1.37,0,1.75,1.75,0,0,0-1,.8,4.26,4.26,0,0,0-.28.7,3.23,3.23,0,0,0-.14,1.11,2.54,2.54,0,0,0,.51,1.44,2.07,2.07,0,0,0,1.17.8,2.36,2.36,0,0,0,2.87-1.77,2.42,2.42,0,0,0,.07-.47,2.75,2.75,0,0,0-.29-1.38,2.51,2.51,0,0,0-.64-.84,2.56,2.56,0,0,0-.58-.39,3,3,0,0,0-1-.28,2.57,2.57,0,0,0-2.25,4.1,3.24,3.24,0,0,0,2.18,1.23c.26,0,.51.08.79.1a1.94,1.94,0,0,0,2-1.42,3.19,3.19,0,0,0,.18-1.06,3,3,0,0,0-.25-1.42c-.46-1-1.67-1.2-2.63-1.21a2.74,2.74,0,0,0-2.61,1.15,2.11,2.11,0,0,0-.25,1,1.69,1.69,0,0,0,.28.93,1.42,1.42,0,0,0,.76.61,1.27,1.27,0,0,0,1.58-.92h0a1.32,1.32,0,0,0-.14-1l-.06-.12.13.32,0-.12.05.35a.29.29,0,0,1,0-.13l-.05.35a.49.49,0,0,1,.05-.16,2.88,2.88,0,0,0-.13.31A.8.8,0,0,1,234,186l-.19.27.12-.12-.25.2.2-.11-.3.13a1.89,1.89,0,0,1,.41-.1l-.34.05a4.5,4.5,0,0,1,1.27,0l-.35-.05a2.68,2.68,0,0,1,.56.13l-.3-.13a.82.82,0,0,1,.2.12l-.25-.2.09.1-.2-.26a.46.46,0,0,1,.09.15l-.13-.31a1.07,1.07,0,0,1,.07.27l-.05-.36a3.3,3.3,0,0,1,0,.77l.05-.35a1.85,1.85,0,0,1-.11.45c.05-.11.09-.21.13-.32a2.12,2.12,0,0,1-.11.21l.2-.27-.1.11.26-.21a.59.59,0,0,1-.17.1l.31-.13-.16,0,.34,0a2.94,2.94,0,0,1-.66-.05l.34.05a3.29,3.29,0,0,1-.87-.23l.3.14a2.5,2.5,0,0,1-.41-.25l.26.21a1.64,1.64,0,0,1-.29-.3l.2.27a1.18,1.18,0,0,1-.16-.29l.13.31a1.11,1.11,0,0,1-.07-.26l.05.35a1.6,1.6,0,0,1,0-.31l-.05.35a1.89,1.89,0,0,1,.09-.34l-.12.31a1.17,1.17,0,0,1,.15-.27l-.2.26a1.42,1.42,0,0,1,.24-.25l-.26.21a1.58,1.58,0,0,1,.24-.15l-.3.14a1.2,1.2,0,0,1,.37-.1l-.34,0a1.21,1.21,0,0,1,.38,0l-.35-.05a1.64,1.64,0,0,1,.38.1l-.31-.14a2.07,2.07,0,0,1,.32.19l-.26-.21a1.39,1.39,0,0,1,.26.28l-.2-.27a1.63,1.63,0,0,1,.19.34l-.13-.32a1.64,1.64,0,0,1,.1.38l0-.36a2,2,0,0,1,0,.35l0-.36a1,1,0,0,1-.08.29l.13-.31a.79.79,0,0,1-.14.23,2.65,2.65,0,0,0,.21-.26l-.19.18.26-.2a1.17,1.17,0,0,1-.27.15l.31-.13-.29.08.34,0h-.29l.33,0a1.09,1.09,0,0,1-.24-.07l.31.13-.16-.1.26.21a1,1,0,0,1-.18-.17l.2.26a.78.78,0,0,1-.12-.22l.12.32a1.32,1.32,0,0,1-.08-.33l0,.35a3.38,3.38,0,0,1,0-.45l0,.35a2.69,2.69,0,0,1,.16-.62l-.13.32a2,2,0,0,1,.13-.25l-.2.27.06-.07-.25.2.07,0-.3.13.12,0-.34.05a1.22,1.22,0,0,1,.27,0l-.34-.05a1.27,1.27,0,0,1,.38.11l-.31-.14a1.9,1.9,0,0,1,.34.2l-.26-.2a1.48,1.48,0,0,1,.28.28l-.2-.27a1.37,1.37,0,0,1,.2.35l-.12-.31a2.45,2.45,0,0,1,.08.29,1.08,1.08,0,0,0,0-.35,1.13,1.13,0,0,1,0,.26l0-.35,0,.12.13-.32a.24.24,0,0,1-.06.11l.2-.27-.08.09.26-.21-.07,0,.3-.14-.09,0,.34-.05a1,1,0,0,1-.25,0l.34.05a3.83,3.83,0,0,1-.8-.23l.3.14a2.5,2.5,0,0,1-.35-.21l.26.21c-.06-.06-.12-.11-.17-.17l.2.27a2,2,0,0,1-.14-.25l.13.31a1.42,1.42,0,0,1-.05-.22l0,.36v-.19l0,.35,0-.13-.13.32a.64.64,0,0,1,.08-.14l-.2.26a.57.57,0,0,1,.11-.11l-.26.2a.59.59,0,0,1,.17-.1l-.3.13a.6.6,0,0,1,.19-.06l-.34,0h.16l-.35,0,.12,0-.31-.14.14.08-.25-.2.11.11-.2-.27a1.62,1.62,0,0,1,.1.18l-.13-.31a.75.75,0,0,1,0,.16l0-.36a.74.74,0,0,1,0,.21l0-.36a.5.5,0,0,1,0,.13l.13-.32a.19.19,0,0,1-.05.09l.2-.26-.07.06.26-.2h0l.3-.14-.09,0,.35-.05a2.53,2.53,0,0,1-.55,0l.35.05-.24-.07.31.14a.91.91,0,0,1-.17-.09l.25.2-.07-.08.2.27a.57.57,0,0,1-.08-.13l.13.31a.57.57,0,0,1,0-.14l0,.35v-.15l0,.35a.13.13,0,0,1,0-.1l-.13.31,0-.06-.2.27a.16.16,0,0,1,.07-.07l-.26.2.07,0-.3.13H234l-.33,0h.08l-.34,0,.13,0-.31-.13.21.13-.26-.21a2.18,2.18,0,0,1,.22.21,1.25,1.25,0,0,0,1.8,0,1.38,1.38,0,0,0,0-1.86Z"/><path class="cls-19" d="M252.65,187.07a1.78,1.78,0,0,0,1.15-1,1.91,1.91,0,0,0,.22-.88,1.71,1.71,0,0,0-.18-.77,1.37,1.37,0,0,0-.83-.62,1.64,1.64,0,0,0-1.81.77,1.59,1.59,0,0,0-.12.27,1,1,0,0,0-.1.29,1.87,1.87,0,0,0,.11,1.12,2.57,2.57,0,0,0,.41.67,3.35,3.35,0,0,0,.51.42,1.86,1.86,0,0,0,1.39.41,1.42,1.42,0,0,0,.93-.49,1.88,1.88,0,0,0,.36-1.77,1.92,1.92,0,0,0-.24-.55,2.46,2.46,0,0,0-2-1.14,2.18,2.18,0,0,0-1.11.3,1.74,1.74,0,0,0-.45.36,2.21,2.21,0,0,0-.36.49,2.65,2.65,0,0,0-.3,1.14,2.47,2.47,0,0,0,.27,1.19,2.43,2.43,0,0,0,1.79,1.25,4.91,4.91,0,0,0,.67.08,1.83,1.83,0,0,0,1.84-1.38,2.8,2.8,0,0,0,.09-.58,3.68,3.68,0,0,0-.06-.66,3.15,3.15,0,0,0-.34-.88,2.49,2.49,0,0,0-1.64-1.4,2.12,2.12,0,0,0-1.54.23,2.71,2.71,0,0,0-.89.86,2.89,2.89,0,0,0-.44.94,2.39,2.39,0,0,0,1.47,3,1.81,1.81,0,0,0,.31.09,2.69,2.69,0,0,0,2.14-.34,2.31,2.31,0,0,0,.8-.9,2.69,2.69,0,0,0,.28-1.18,2.38,2.38,0,0,0-1.07-2,2.52,2.52,0,0,0-1.33-.35,3.09,3.09,0,0,0-1,.18,2.64,2.64,0,0,0-1.11.72,2.49,2.49,0,0,0-.59,1.18,2.53,2.53,0,0,0,0,1,2,2,0,0,0,1.39,1.57,1.74,1.74,0,0,0,1.19,0,1,1,0,0,0,.44-.24,1,1,0,0,0,.33-.36,1.45,1.45,0,0,0,.13-1,1.43,1.43,0,0,0-.59-.79,1.19,1.19,0,0,0-1-.13.53.53,0,0,1-.18,0l.35,0h-.16l.34,0a.86.86,0,0,1-.21-.07l.31.14-.17-.1.26.21a.8.8,0,0,1-.15-.17l.19.27-.09-.17.13.31a1.17,1.17,0,0,1-.05-.2,2.21,2.21,0,0,0,0,.35,1,1,0,0,1,0-.25l-.05.35a1.29,1.29,0,0,1,.08-.28l-.13.31a2,2,0,0,1,.14-.25l-.2.26a1.75,1.75,0,0,1,.24-.23l-.26.2a1.46,1.46,0,0,1,.3-.17l-.31.13a2.42,2.42,0,0,1,.51-.14l-.34.05a2.18,2.18,0,0,1,.51,0l-.34-.05a1.68,1.68,0,0,1,.32.09l-.31-.13a.82.82,0,0,1,.2.12l-.26-.21a.93.93,0,0,1,.14.14l-.2-.27.13.23-.13-.31a1,1,0,0,1,.08.31c0-.12,0-.24,0-.35a1.82,1.82,0,0,1,0,.33l0-.35a1.53,1.53,0,0,1-.07.29l.12-.32a1,1,0,0,1-.12.23l.2-.26-.2.2.25-.21a1,1,0,0,1-.25.16l.3-.14a1.42,1.42,0,0,1-.35.11l.34-.05a1.41,1.41,0,0,1-.41,0l.35,0a1.62,1.62,0,0,1-.43-.12l.3.14a2.14,2.14,0,0,1-.32-.2l.26.2-.19-.18.2.27a2,2,0,0,1-.11-.2l.13.31a.86.86,0,0,1-.06-.23l0,.35a1.71,1.71,0,0,1,0-.32l0,.35a1.66,1.66,0,0,1,.12-.45l-.13.31a1.74,1.74,0,0,1,.23-.4l-.2.26a1.72,1.72,0,0,1,.27-.27l-.26.2a1.09,1.09,0,0,1,.23-.14l-.3.13a1,1,0,0,1,.25-.07l-.34.05h.23l-.34-.05.23.07-.31-.13a1,1,0,0,1,.22.14l-.26-.21a1.88,1.88,0,0,1,.24.25l-.2-.27a3.1,3.1,0,0,1,.26.47l-.13-.31a1.49,1.49,0,0,1,.13.47l-.05-.36a1.21,1.21,0,0,1,0,.38l.05-.35a1.17,1.17,0,0,1-.05.2l.13-.31a1.09,1.09,0,0,1-.08.15l.2-.27-.09.1.25-.21-.12.07.31-.13a.5.5,0,0,1-.13,0l.35,0a.76.76,0,0,1-.3,0l.33,0a3.31,3.31,0,0,1-.69-.17l.3.13a1.91,1.91,0,0,1-.27-.16l.26.21-.14-.15.2.27a1,1,0,0,1-.13-.22l.13.31a1.47,1.47,0,0,1-.08-.28l0,.35a1.82,1.82,0,0,1,0-.33l0,.35a1.47,1.47,0,0,1,.08-.28l-.13.31a1,1,0,0,1,.13-.22l-.2.27a.65.65,0,0,1,.16-.17l-.26.21.17-.11-.3.13a1,1,0,0,1,.25-.06l-.34,0h.25l-.33,0a1.34,1.34,0,0,1,.27.07l-.3-.13a1,1,0,0,1,.25.15l-.26-.21a1,1,0,0,1,.21.21l-.2-.26a1.28,1.28,0,0,1,.11.2l-.13-.31a.66.66,0,0,1,.06.2l0-.35a.49.49,0,0,1,0,.17l0-.35,0,.13.12-.32,0,.06.2-.27-.06.07.26-.2-.07,0,.31-.13h-.07l.34-.05h-.11l.34.05-.14-.05.3.14a1.92,1.92,0,0,1-.35-.23l.26.21a1.6,1.6,0,0,1-.26-.26l.2.27a.64.64,0,0,1-.1-.18l.12.31,0-.14a2,2,0,0,0,0,.35v-.12l-.05.35a.65.65,0,0,1,0-.13l-.13.32a1,1,0,0,1,.08-.14l-.2.27a.76.76,0,0,1,.09-.09l-.26.21.07,0-.3.13h.08l-.35,0h.09l-.34,0h.05l-.3-.13h0l-.59-.79v0l0-.36a.29.29,0,0,1,0,.13l.05-.35a.94.94,0,0,1,0,.16l.13-.32a1.09,1.09,0,0,1-.08.15l.2-.27-.11.11.25-.2-.1.06.3-.13-.09,0a1.32,1.32,0,0,0-.9,1.61h0a1.37,1.37,0,0,0,.58.79,1.32,1.32,0,0,0,1,.13Z"/></svg>